<svg width="1013" height="500" viewBox="0 0 1013 500" fill="none" xmlns="http://www.w3.org/2000/svg">
<g clip-path="url(#clip0_276_137)">
<rect width="1013" height="500" fill="#002155"/>
<path d="M1102.85 238.676C1102.85 238.676 1058.61 293.19 899.332 297.953C740.056 302.717 481.863 116.521 373.457 90.4751C265.051 64.4292 202.619 50.4668 118.821 106.811C35.0238 163.156 -39.1734 223.038 -39.1734 223.038" stroke="url(#paint0_linear_276_137)" stroke-width="218.296" stroke-linecap="round"/>
<rect x="36" y="59.7344" width="25.2543" height="8.87531" transform="rotate(-90 36 59.7344)" fill="#FA9819"/>
<rect x="46.6592" y="59.7344" width="25.2543" height="7.61363" transform="rotate(-90 46.6592 59.7344)" fill="#F45F00"/>
<rect x="55.9854" y="59.7344" width="25.2543" height="4.94886" transform="rotate(-90 55.9854 59.7344)" fill="#48749E"/>
<path d="M69.8238 57V36.7613H72.8821V57H69.8238ZM74.7019 57V39.2349H77.0856L77.7302 42.668V57H74.7019ZM85.8407 57V46.8506C85.8407 44.7918 85.5309 43.3326 84.9112 42.4731C84.3016 41.6136 83.3721 41.1838 82.1228 41.1838C80.8735 41.1838 79.8141 41.6435 78.9446 42.563C78.0751 43.4825 77.6403 44.6419 77.6403 46.0411L76.1711 45.1116C76.1711 43.6524 76.8257 42.2782 78.135 40.9889C79.4543 39.6996 81.1483 39.055 83.2172 39.055C85.276 39.055 86.7302 39.7496 87.5798 41.1388C88.4393 42.5181 88.869 44.417 88.869 46.8357V57H85.8407ZM91.7324 57V41.3487H88.1195V39.2349H91.7324V38.1105C91.7324 36.3415 92.4371 35.1072 93.8463 34.4076C95.2655 33.698 97.1594 33.3432 99.5281 33.3432H100.038V35.382H99.5881C98.0689 35.382 96.8846 35.5619 96.0351 35.9217C95.1855 36.2815 94.7608 37.0161 94.7608 38.1255V39.2349H99.8429V41.3487H94.7608V57H91.7324ZM106.983 57.1499C104.225 57.1499 102.241 56.3504 101.031 54.7513C99.8122 53.1421 99.2025 50.9184 99.2025 48.08C99.2025 45.0716 99.8272 42.8179 101.076 41.3187C102.316 39.8096 104.27 39.055 106.938 39.055C109.687 39.055 111.656 39.8096 112.845 41.3187C114.024 42.8279 114.614 45.0666 114.614 48.035C114.614 48.3848 114.594 48.7096 114.554 49.0094H101.811V47.1205H111.556C111.476 44.9417 111.081 43.4026 110.371 42.5031C109.552 41.5436 108.407 41.0639 106.938 41.0639C105.509 41.0639 104.355 41.5686 103.475 42.578C102.586 43.5975 102.141 45.4314 102.141 48.08C102.141 50.5886 102.571 52.3876 103.43 53.477C104.28 54.5863 105.464 55.141 106.983 55.141V57.1499ZM106.983 55.141C107.853 55.141 108.612 54.9961 109.262 54.7063C109.912 54.4164 110.416 53.9217 110.776 53.2221C111.116 52.5225 111.371 51.7329 111.541 50.8534L114.269 51.588C114.099 52.8073 113.709 53.8418 113.1 54.6913C112.48 55.5508 111.681 56.1755 110.701 56.5652C109.722 56.955 108.482 57.1499 106.983 57.1499V55.141ZM125.877 47.5103C125.877 45.0716 125.582 43.4126 124.992 42.5331C124.412 41.6435 123.558 41.1988 122.429 41.1988C121.139 41.1988 120.125 41.6336 119.385 42.5031C118.646 43.3626 118.276 44.337 118.276 45.4264L117.107 44.5719C117.107 43.0528 117.686 41.7585 118.846 40.6891C120.005 39.6197 121.564 39.085 123.523 39.085C125.542 39.085 126.941 39.7596 127.721 41.1088C128.51 42.4481 128.905 44.5819 128.905 47.5103H125.877ZM115.263 57V39.2349H117.646L118.291 42.668V57H115.263ZM136.591 57.1499C133.832 57.1499 131.848 56.3504 130.639 54.7513C129.42 53.1421 128.81 50.9184 128.81 48.08C128.81 45.0716 129.435 42.8179 130.684 41.3187C131.923 39.8096 133.877 39.055 136.546 39.055C139.294 39.055 141.263 39.8096 142.452 41.3187C143.632 42.8279 144.221 45.0666 144.221 48.035C144.221 48.3848 144.201 48.7096 144.161 49.0094H131.418V47.1205H141.163C141.083 44.9417 140.688 43.4026 139.979 42.5031C139.159 41.5436 138.015 41.0639 136.546 41.0639C135.116 41.0639 133.962 41.5686 133.082 42.578C132.193 43.5975 131.748 45.4314 131.748 48.08C131.748 50.5886 132.178 52.3876 133.037 53.477C133.887 54.5863 135.071 55.141 136.591 55.141V57.1499ZM136.591 55.141C137.46 55.141 138.22 54.9961 138.869 54.7063C139.519 54.4164 140.024 53.9217 140.383 53.2221C140.723 52.5225 140.978 51.7329 141.148 50.8534L143.876 51.588C143.707 52.8073 143.317 53.8418 142.707 54.6913C142.087 55.5508 141.288 56.1755 140.308 56.5652C139.329 56.955 138.09 57.1499 136.591 57.1499V55.141ZM144.87 57V39.2349H147.254L147.898 42.668V57H144.87ZM156.009 57V46.8506C156.009 44.7918 155.699 43.3326 155.079 42.4731C154.47 41.6136 153.54 41.1838 152.291 41.1838C151.041 41.1838 149.982 41.6435 149.113 42.563C148.243 43.4825 147.808 44.6419 147.808 46.0411L146.339 45.1116C146.339 43.6524 146.994 42.2782 148.303 40.9889C149.622 39.6996 151.316 39.055 153.385 39.055C155.444 39.055 156.898 39.7496 157.748 41.1388C158.607 42.5181 159.037 44.417 159.037 46.8357V57H156.009ZM167.223 57.1199C165.085 57.1199 163.356 56.7351 162.036 55.9656C160.717 55.196 159.902 53.8168 159.593 51.8279L162.276 50.9134C162.446 52.4126 162.956 53.487 163.805 54.1366C164.665 54.7862 165.819 55.1111 167.268 55.1111C168.638 55.1111 169.662 54.8712 170.342 54.3915C171.031 53.9017 171.376 53.2621 171.376 52.4725C171.376 51.3431 170.851 50.5886 169.802 50.2088C168.753 49.819 167.433 49.4492 165.844 49.0994C164.035 48.7096 162.561 48.1549 161.422 47.4353C160.292 46.7057 159.728 45.4964 159.728 43.8073C159.728 42.2682 160.352 41.0989 161.602 40.2993C162.851 39.4897 164.565 39.085 166.744 39.085C168.912 39.085 170.621 39.4798 171.871 40.2693C173.13 41.0489 173.905 42.3482 174.195 44.1671L171.511 45.0816C171.341 43.7724 170.846 42.7779 170.027 42.0983C169.217 41.4187 168.113 41.0789 166.714 41.0789C165.364 41.0789 164.36 41.3237 163.7 41.8135C163.051 42.3032 162.726 42.9628 162.726 43.7924C162.726 44.8318 163.221 45.5414 164.21 45.9212C165.21 46.301 166.474 46.6658 168.003 47.0156C169.812 47.3854 171.326 47.9101 172.545 48.5897C173.775 49.2593 174.389 50.4836 174.389 52.2626C174.389 53.9017 173.78 55.121 172.56 55.9206C171.341 56.7202 169.562 57.1199 167.223 57.1199ZM179.143 57L173.956 39.2349H177.12L181.437 54.9162H181.467L185.74 39.2349H188.918L183.776 57H179.143ZM174.676 63.9112V61.8273C176.375 61.8273 177.704 61.5075 178.664 60.8678C179.623 60.2382 180.388 58.9489 180.957 57H183.776C182.966 59.7785 181.822 61.6224 180.343 62.5319C178.864 63.4514 176.975 63.9112 174.676 63.9112ZM196.128 57.1199C193.989 57.1199 192.26 56.7351 190.941 55.9656C189.622 55.196 188.807 53.8168 188.497 51.8279L191.181 50.9134C191.351 52.4126 191.86 53.487 192.71 54.1366C193.569 54.7862 194.724 55.1111 196.173 55.1111C197.542 55.1111 198.567 54.8712 199.246 54.3915C199.936 53.9017 200.281 53.2621 200.281 52.4725C200.281 51.3431 199.756 50.5886 198.707 50.2088C197.657 49.819 196.338 49.4492 194.749 49.0994C192.94 48.7096 191.466 48.1549 190.326 47.4353C189.197 46.7057 188.632 45.4964 188.632 43.8073C188.632 42.2682 189.257 41.0989 190.506 40.2993C191.755 39.4897 193.469 39.085 195.648 39.085C197.817 39.085 199.526 39.4798 200.775 40.2693C202.035 41.0489 202.809 42.3482 203.099 44.1671L200.416 45.0816C200.246 43.7724 199.751 42.7779 198.931 42.0983C198.122 41.4187 197.018 41.0789 195.618 41.0789C194.269 41.0789 193.265 41.3237 192.605 41.8135C191.955 42.3032 191.631 42.9628 191.631 43.7924C191.631 44.8318 192.125 45.5414 193.115 45.9212C194.114 46.301 195.378 46.6658 196.908 47.0156C198.717 47.3854 200.231 47.9101 201.45 48.5897C202.679 49.2593 203.294 50.4836 203.294 52.2626C203.294 53.9017 202.684 55.121 201.465 55.9206C200.246 56.7202 198.467 57.1199 196.128 57.1199Z" fill="white"/>
<path d="M97.9744 227.325C94.2184 227.815 89.8908 230.183 84.9916 234.429C80.0925 238.512 75.3566 243.574 70.7841 249.616C66.3748 255.495 62.6188 261.946 59.516 268.968C56.4132 275.827 54.8618 282.196 54.8618 288.075C54.8618 292.811 56.0866 296.158 58.5362 298.118C60.9857 299.914 64.4968 300.813 69.0694 300.813C73.9685 300.813 78.7044 300.241 83.2769 299.098C88.0128 297.791 92.667 296.485 97.2395 295.179C101.975 293.709 106.63 292.402 111.202 291.259C115.938 289.953 120.756 289.3 125.655 289.3C125.655 291.586 125.328 293.546 124.675 295.179C124.022 296.648 123.042 298.281 121.735 300.078C113.243 304.16 104.507 307.916 95.5248 311.346C86.543 314.612 77.153 316.245 67.3546 316.245C64.4151 316.245 61.3123 315.755 58.0462 314.775C54.7801 313.632 51.759 312.081 48.9828 310.121C46.2066 308.161 43.8387 305.793 41.879 303.017C40.0826 300.241 39.1845 297.138 39.1845 293.709C39.1845 286.36 40.2459 279.256 42.3689 272.397C44.4919 265.375 47.4314 258.761 51.1874 252.556C54.9434 246.35 59.4343 240.635 64.6601 235.409C70.0492 230.183 75.8465 225.61 82.0521 221.691V221.446C84.5017 219.976 87.2779 218.588 90.3807 217.282C93.6468 215.812 96.668 214.996 99.4442 214.832C102.22 214.506 104.507 215.159 106.303 216.792C108.263 218.262 109.242 221.12 109.242 225.365C109.242 227.325 109.079 229.938 108.753 233.204C108.426 236.307 107.528 238.512 106.058 239.818C104.752 240.635 103.037 241.369 100.914 242.023C99.9341 242.349 98.9543 242.594 97.9744 242.758V227.325ZM115.621 295.424C115.621 294.77 115.621 293.464 115.621 291.504C115.785 289.381 115.866 287.993 115.866 287.34C121.092 275.419 127.787 264.395 135.953 254.271C144.118 244.146 153.345 235.164 163.633 227.325C163.96 227.325 164.45 227.243 165.103 227.08C165.919 226.754 166.491 226.59 166.817 226.59C171.227 226.59 174.819 227.57 177.596 229.53C180.535 231.326 182.821 233.776 184.454 236.879C186.251 239.818 187.476 243.166 188.129 246.922C188.782 250.515 189.109 254.026 189.109 257.455C189.109 263.824 187.639 270.519 184.699 277.542C181.76 284.4 177.759 290.769 172.696 296.648C167.797 302.364 162.163 307.1 155.794 310.856C149.425 314.449 142.812 316.245 135.953 316.245C129.094 316.245 123.95 314.449 120.52 310.856C117.254 307.1 115.621 301.956 115.621 295.424ZM134.728 292.484C134.728 294.28 135.463 295.505 136.933 296.158C138.402 296.812 139.872 297.138 141.342 297.138C145.424 297.138 149.344 296.077 153.1 293.954C157.019 291.667 160.449 288.891 163.388 285.625C166.491 282.196 168.94 278.44 170.737 274.357C172.533 270.274 173.431 266.355 173.431 262.599C173.431 260.803 173.268 258.843 172.941 256.72C172.778 254.434 172.288 252.474 171.472 250.841C170.655 249.045 169.349 247.657 167.552 246.677C165.919 245.697 163.551 245.534 160.449 246.187C158.162 246.677 155.549 248.8 152.61 252.556C149.67 256.312 146.813 260.721 144.036 265.784C141.423 270.683 139.219 275.664 137.422 280.726C135.626 285.625 134.728 289.545 134.728 292.484ZM191.323 304.977C191.323 303.507 191.323 302.364 191.323 301.547C191.323 300.731 191.405 299.996 191.568 299.343C191.895 298.526 192.303 297.71 192.793 296.893C193.283 296.077 193.936 295.015 194.752 293.709C196.059 291.423 198.509 287.422 202.101 281.706C205.694 275.99 209.532 269.948 213.614 263.579C217.697 257.21 221.535 251.168 225.127 245.452C228.883 239.736 231.496 235.735 232.966 233.449C233.129 233.286 233.538 233.204 234.191 233.204C235.007 233.204 235.579 233.204 235.905 233.204C236.232 233.204 236.804 233.204 237.62 233.204C238.437 233.204 238.927 233.286 239.09 233.449C239.253 233.612 239.58 234.021 240.07 234.674C240.723 235.327 241.376 236.062 242.029 236.879C242.846 237.532 243.499 238.185 243.989 238.838C244.642 239.491 245.132 239.818 245.459 239.818C246.929 239.818 248.48 239.328 250.113 238.348C251.746 237.368 253.379 236.307 255.012 235.164C256.809 233.857 258.605 232.714 260.401 231.734C262.198 230.755 264.076 230.265 266.035 230.265C268.158 230.265 270.118 230.755 271.914 231.734C273.711 232.714 275.262 233.939 276.569 235.409C277.875 236.879 278.855 238.512 279.508 240.308C280.325 242.104 280.733 243.901 280.733 245.697C280.733 249.453 280.161 253.046 279.018 256.475C278.038 259.905 276.895 263.334 275.589 266.763C274.282 270.03 273.057 273.377 271.914 276.807C270.934 280.073 270.445 283.502 270.445 287.095C270.445 290.688 270.853 293.301 271.669 294.934C272.486 296.403 274.772 297.138 278.528 297.138C282.937 297.138 287.102 296.485 291.021 295.179C295.104 293.872 299.268 293.219 303.514 293.219C303.514 297.138 302.289 300.404 299.84 303.017C297.553 305.63 294.614 307.753 291.021 309.386C287.592 310.856 283.836 311.917 279.753 312.571C275.834 313.061 272.241 313.305 268.975 313.305C262.769 313.305 258.197 311.591 255.257 308.161C252.481 304.569 251.093 299.833 251.093 293.954C251.093 290.034 251.746 286.36 253.053 282.931C254.522 279.501 256.074 276.153 257.707 272.887C259.503 269.621 261.136 266.355 262.606 263.089C264.076 259.823 264.811 256.312 264.811 252.556C264.811 251.576 264.647 250.27 264.321 248.637C263.994 247.003 262.933 246.187 261.136 246.187C255.747 246.187 250.848 247.902 246.439 251.331C242.193 254.76 238.273 259.088 234.681 264.314C231.251 269.54 228.067 275.174 225.127 281.216C222.351 287.258 219.657 292.892 217.044 298.118C214.594 303.344 212.226 307.671 209.94 311.101C207.654 314.53 205.286 316.245 202.836 316.245C199.407 316.245 196.631 315.183 194.508 313.061C192.385 310.938 191.323 308.243 191.323 304.977ZM285.642 292.239C285.642 287.503 286.54 282.767 288.336 278.031C290.133 273.296 292.256 268.641 294.705 264.069C297.155 259.333 299.604 254.679 302.054 250.106C304.667 245.534 306.627 241.043 307.933 236.634C304.83 238.43 302.136 239.491 299.849 239.818C297.726 239.981 295.113 240.063 292.011 240.063C291.684 240.063 290.623 240.063 288.826 240.063C287.193 239.9 286.132 239.818 285.642 239.818C286.622 236.225 288.418 233.041 291.031 230.265C293.644 227.325 296.583 224.876 299.849 222.916C303.279 220.793 306.79 219.078 310.383 217.772C314.139 216.302 317.486 215.159 320.426 214.342C325.325 206.667 329.326 198.992 332.429 191.316C335.532 183.478 338.634 175.884 341.737 168.535C345.003 161.023 348.759 153.919 353.005 147.224C357.415 140.365 363.294 134.078 370.642 128.362L371.867 137.67L341.247 209.443C343.044 208.953 345.248 208.463 347.861 207.973C350.474 207.484 353.087 206.994 355.7 206.504C358.476 206.014 361.089 205.606 363.538 205.279C366.151 204.789 368.356 204.299 370.152 203.809C370.316 203.809 370.806 203.809 371.622 203.809C372.439 203.646 373.092 203.564 373.582 203.564C375.868 203.564 377.746 203.972 379.216 204.789C380.686 205.606 381.91 207.402 382.89 210.178C371.785 213.444 361.742 216.874 352.76 220.466C343.779 224.059 335.94 228.795 329.244 234.674C322.712 240.39 317.323 247.738 313.077 256.72C308.994 265.539 306.137 276.888 304.504 290.769C304.504 293.709 304.667 296.403 304.993 298.853C305.32 301.303 307.361 302.772 311.117 303.262C314.873 303.262 318.385 302.527 321.651 301.058C324.917 299.588 328.101 298.036 331.204 296.403C334.307 294.607 337.41 292.974 340.512 291.504C343.779 290.034 347.29 289.3 351.046 289.3C351.046 293.219 349.331 296.812 345.901 300.078C342.472 303.344 338.308 306.202 333.409 308.651C328.673 311.101 323.774 312.979 318.711 314.285C313.649 315.592 309.484 316.245 306.218 316.245C302.952 316.245 300.013 315.592 297.4 314.285C294.787 312.979 292.582 311.264 290.786 309.141C289.153 306.855 287.846 304.242 286.867 301.303C286.05 298.363 285.642 295.342 285.642 292.239ZM342.727 303.262C339.951 297.057 338.726 291.014 339.052 285.135C339.379 279.093 340.686 273.459 342.972 268.233C345.421 262.844 348.524 258.027 352.28 253.781C356.2 249.371 360.364 245.615 364.773 242.513C369.182 239.246 373.592 236.797 378.001 235.164C382.573 233.531 386.574 232.878 390.004 233.204C393.433 233.367 396.128 234.592 398.087 236.879C400.047 239.165 400.7 242.676 400.047 247.412C400.047 253.781 398.006 259.333 393.923 264.069C390.004 268.805 385.595 273.051 380.695 276.807C375.959 280.563 371.55 283.992 367.468 287.095C363.548 290.034 361.589 292.811 361.589 295.424C361.589 296.893 362.405 298.036 364.038 298.853C365.835 299.669 367.876 300.323 370.162 300.813C372.448 301.139 374.735 301.384 377.021 301.547C379.307 301.711 380.94 301.874 381.92 302.037C397.271 298.771 408.784 296.812 416.459 296.158C424.135 295.342 428.952 295.424 430.912 296.403C432.871 297.22 432.463 298.608 429.687 300.568C427.074 302.364 422.991 304.324 417.439 306.447C411.887 308.406 405.436 310.203 398.087 311.836C390.739 313.469 383.472 314.449 376.286 314.775C369.101 314.939 362.405 314.204 356.2 312.571C350.157 310.938 345.666 307.835 342.727 303.262ZM385.595 247.412C382.328 247.412 379.226 248.31 376.286 250.106C373.347 251.903 370.652 254.189 368.202 256.965C365.916 259.578 363.957 262.517 362.323 265.784C360.69 268.886 359.466 271.826 358.649 274.602C358.976 274.765 359.221 274.847 359.384 274.847H360.119C362.405 274.847 365.018 273.867 367.958 271.908C370.897 269.948 373.673 267.58 376.286 264.804C378.899 261.864 381.104 258.843 382.9 255.74C384.696 252.637 385.595 249.861 385.595 247.412ZM455.662 265.049C457.459 263.252 458.439 261.293 458.602 259.17C458.765 257.047 458.847 254.842 458.847 252.556C458.847 242.431 456.805 235.49 452.723 231.734C448.803 227.815 441.945 225.855 432.146 225.855C432.146 224.386 432.881 223.243 434.351 222.426C435.984 221.609 437.78 221.12 439.74 220.956C441.863 220.63 443.823 220.466 445.619 220.466C447.415 220.466 448.559 220.466 449.048 220.466C452.968 220.466 456.479 221.364 459.582 223.161C462.684 224.794 465.297 226.59 467.42 228.55C469.707 230.51 471.503 232.388 472.809 234.184C474.279 235.817 475.341 236.634 475.994 236.634C477.464 236.634 478.852 236.307 480.158 235.654C481.628 235 482.934 234.266 484.077 233.449C485.221 232.469 487.344 230.836 490.446 228.55C493.549 226.1 496.734 223.569 500 220.956C503.429 218.18 506.614 215.649 509.553 213.363C512.656 210.913 514.779 209.198 515.922 208.218C516.412 208.055 517.228 207.81 518.372 207.484C519.678 207.157 520.985 206.83 522.291 206.504C523.597 206.014 524.822 205.606 525.965 205.279C527.272 204.952 528.17 204.789 528.66 204.789H529.395C529.558 204.789 529.721 204.789 529.885 204.789C530.048 204.626 530.211 204.544 530.375 204.544C531.681 204.544 532.824 205.116 533.804 206.259C534.784 207.402 535.274 208.627 535.274 209.933C535.274 211.566 534.457 212.709 532.824 213.363C531.191 213.852 529.231 214.261 526.945 214.587C524.822 214.914 522.699 215.241 520.576 215.567C518.453 215.894 516.902 216.629 515.922 217.772L481.138 258.925V290.769H513.717C513.717 294.199 512.819 296.812 511.023 298.608C509.227 300.404 507.022 301.711 504.409 302.527C501.796 303.181 498.938 303.589 495.835 303.752C492.733 303.752 489.956 303.752 487.507 303.752C479.995 303.752 473.871 301.221 469.135 296.158C464.399 291.096 460.888 284.972 458.602 277.787C456.805 280.726 454.356 284.319 451.253 288.565C448.314 292.647 444.966 296.648 441.21 300.568C437.617 304.324 433.698 307.59 429.452 310.366C425.369 312.979 421.368 314.285 417.449 314.285V303.262L455.662 265.049ZM529.649 292.239C529.649 287.503 530.548 282.767 532.344 278.031C534.14 273.296 536.263 268.641 538.713 264.069C541.163 259.333 543.612 254.679 546.062 250.106C548.675 245.534 550.634 241.043 551.941 236.634C548.838 238.43 546.143 239.491 543.857 239.818C541.734 239.981 539.121 240.063 536.018 240.063C535.692 240.063 534.63 240.063 532.834 240.063C531.201 239.9 530.139 239.818 529.649 239.818C530.629 236.225 532.426 233.041 535.039 230.265C537.651 227.325 540.591 224.876 543.857 222.916C547.286 220.793 550.798 219.078 554.39 217.772C558.146 216.302 561.494 215.159 564.434 214.342C569.333 206.667 573.334 198.992 576.437 191.316C579.539 183.478 582.642 175.884 585.745 168.535C589.011 161.023 592.767 153.919 597.013 147.224C601.422 140.365 607.301 134.078 614.65 128.362L615.875 137.67L585.255 209.443C587.051 208.953 589.256 208.463 591.869 207.973C594.482 207.484 597.095 206.994 599.708 206.504C602.484 206.014 605.097 205.606 607.546 205.279C610.159 204.789 612.364 204.299 614.16 203.809C614.323 203.809 614.813 203.809 615.63 203.809C616.446 203.646 617.1 203.564 617.589 203.564C619.876 203.564 621.754 203.972 623.224 204.789C624.693 205.606 625.918 207.402 626.898 210.178C615.793 213.444 605.75 216.874 596.768 220.466C587.786 224.059 579.948 228.795 573.252 234.674C566.72 240.39 561.331 247.738 557.085 256.72C553.002 265.539 550.144 276.888 548.511 290.769C548.511 293.709 548.675 296.403 549.001 298.853C549.328 301.303 551.369 302.772 555.125 303.262C558.881 303.262 562.392 302.527 565.658 301.058C568.924 299.588 572.109 298.036 575.212 296.403C578.315 294.607 581.417 292.974 584.52 291.504C587.786 290.034 591.297 289.3 595.053 289.3C595.053 293.219 593.339 296.812 589.909 300.078C586.48 303.344 582.316 306.202 577.416 308.651C572.68 311.101 567.781 312.979 562.719 314.285C557.656 315.592 553.492 316.245 550.226 316.245C546.96 316.245 544.02 315.592 541.407 314.285C538.795 312.979 536.59 311.264 534.794 309.141C533.161 306.855 531.854 304.242 530.874 301.303C530.058 298.363 529.649 295.342 529.649 292.239ZM526.965 393.897C536.11 393.897 544.438 391.284 551.951 386.058C559.463 380.832 566.24 374.3 572.282 366.461C578.324 358.786 583.55 350.539 587.959 341.721C592.369 333.065 595.961 325.227 598.738 318.205C599.881 315.265 601.35 311.264 603.147 306.202C604.943 300.976 606.658 295.913 608.291 291.014C610.087 285.952 611.557 281.461 612.7 277.542C614.007 273.622 614.66 271.336 614.66 270.683V269.703C611.884 267.417 609.107 266.6 606.331 267.253C603.555 267.743 600.86 268.56 598.248 269.703C595.798 270.683 593.512 271.336 591.389 271.663C589.266 271.826 587.388 270.356 585.755 267.253C585.755 264.477 586.49 262.273 587.959 260.639C589.429 259.006 591.307 257.7 593.593 256.72C595.88 255.74 598.411 255.005 601.187 254.515C603.963 254.026 606.658 253.454 609.271 252.801C611.884 252.148 614.252 251.249 616.375 250.106C618.497 248.963 620.049 247.33 621.029 245.207L646.259 188.132C648.382 183.559 651.322 179.313 655.078 175.394C658.834 171.311 663.08 167.882 667.816 165.106C672.552 162.33 677.532 160.125 682.758 158.492C687.984 156.859 693.046 156.042 697.946 156.042C704.968 156.042 709.785 157.92 712.398 161.676C715.011 165.432 716.317 171.066 716.317 178.578C716.317 180.048 715.746 181.926 714.603 184.213C713.623 186.499 712.316 188.703 710.683 190.826C709.05 192.949 707.254 194.746 705.294 196.215C703.335 197.685 701.457 198.42 699.66 198.42C699.66 196.297 700.069 194.337 700.885 192.541C701.702 190.581 702.518 188.703 703.335 186.907C704.315 185.111 705.213 183.314 706.029 181.518C706.846 179.558 707.254 177.435 707.254 175.149C707.254 172.536 707.009 170.332 706.519 168.535C706.029 166.739 703.988 165.841 700.395 165.841C695.659 165.841 690.842 167.065 685.943 169.515C681.207 171.801 676.553 174.986 671.98 179.068C667.571 182.988 663.325 187.56 659.242 192.786C655.323 197.849 651.893 203.074 648.954 208.463C646.178 213.852 643.891 219.242 642.095 224.631C640.462 229.856 639.646 234.592 639.646 238.838C639.646 239.165 639.646 239.736 639.646 240.553C639.809 241.206 639.891 241.696 639.891 242.023C642.993 241.043 646.504 239.9 650.424 238.593C654.506 237.287 658.671 236.144 662.917 235.164C667.326 234.021 671.653 233.122 675.899 232.469C680.309 231.653 684.473 231.244 688.392 231.244C688.392 233.857 687.086 236.225 684.473 238.348C681.86 240.471 678.512 242.431 674.43 244.227C670.51 246.024 666.101 247.738 661.202 249.371C656.466 251.004 651.975 252.637 647.729 254.271C643.483 255.74 639.727 257.373 636.461 259.17C633.358 260.803 631.399 262.517 630.582 264.314C629.766 269.213 627.969 275.99 625.193 284.645C622.58 293.301 619.151 302.691 614.905 312.816C610.659 322.94 605.76 333.229 600.207 343.68C594.818 354.132 588.939 363.604 582.57 372.095C576.038 380.587 569.261 387.528 562.239 392.917C555.053 398.306 547.705 401 540.193 401C539.213 401 537.988 400.919 536.518 400.756C534.885 400.592 533.415 400.266 532.109 399.776C530.639 399.286 529.414 398.551 528.435 397.571C527.455 396.591 526.965 395.366 526.965 393.897ZM690.852 303.752C690.852 301.303 691.586 297.873 693.056 293.464C694.526 288.891 696.404 283.992 698.69 278.766C701.14 273.541 703.834 268.233 706.774 262.844C709.877 257.455 712.979 252.556 716.082 248.147C719.185 243.737 722.125 240.145 724.901 237.368C727.677 234.592 730.127 233.204 732.25 233.204C736.822 233.204 739.108 235.409 739.108 239.818C739.108 241.778 738.7 243.411 737.884 244.717C737.23 246.024 736.414 247.248 735.434 248.392C734.454 249.535 733.393 250.678 732.25 251.821C731.106 252.801 730.127 254.026 729.31 255.495C727.84 257.945 726.044 261.293 723.921 265.539C721.798 269.785 719.675 273.949 717.552 278.031C715.592 281.951 713.878 285.462 712.408 288.565C710.938 291.667 710.203 293.382 710.203 293.709V296.893C716.572 295.75 722.696 293.056 728.575 288.81C734.454 284.4 740.007 279.256 745.232 273.377C750.621 267.498 755.684 261.374 760.42 255.005C765.319 248.473 769.891 242.513 774.137 237.123C778.383 231.571 782.384 226.999 786.14 223.406C789.896 219.813 793.407 218.017 796.674 218.017C796.674 224.059 795.449 229.53 792.999 234.429C790.55 239.328 787.855 244.146 784.916 248.881C782.139 253.617 779.526 258.516 777.077 263.579C774.627 268.478 773.402 274.03 773.402 280.236C773.402 282.849 774.954 285.217 778.057 287.34C781.323 289.3 784.997 291.014 789.08 292.484C793.326 293.79 797.408 294.852 801.328 295.668C805.247 296.485 807.942 296.975 809.411 297.138V303.507C805.655 303.67 801.001 303.752 795.449 303.752C789.896 303.589 784.344 302.936 778.792 301.792C773.239 300.649 768.177 298.771 763.604 296.158C759.195 293.382 756.255 289.381 754.786 284.155C750.54 286.932 746.457 290.198 742.538 293.954C738.618 297.71 734.536 301.221 730.29 304.487C726.207 307.753 721.88 310.529 717.307 312.816C712.734 315.102 707.754 316.245 702.365 316.245C699.098 316.245 696.322 314.857 694.036 312.081C691.913 309.304 690.852 306.528 690.852 303.752ZM796.928 293.709C796.928 292.566 797.01 290.851 797.173 288.565C797.5 286.115 797.826 283.747 798.153 281.461C798.48 279.175 798.806 277.133 799.133 275.337C799.459 273.377 799.786 272.152 800.113 271.663L844.695 182.498C845.348 181.191 846.573 179.395 848.369 177.109C850.329 174.659 852.37 172.21 854.493 169.76C856.78 167.147 858.984 164.779 861.107 162.656C863.394 160.37 865.272 158.574 866.741 157.267C867.884 157.594 868.701 158.165 869.191 158.982C869.681 159.798 870.007 160.778 870.171 161.921C870.334 162.901 870.334 163.881 870.171 164.861C870.171 165.841 870.171 166.657 870.171 167.31C870.171 168.127 870.171 169.27 870.171 170.74C870.171 172.21 870.089 172.944 869.926 172.944C868.293 177.354 865.761 182.579 862.332 188.622C858.903 194.664 855.065 201.115 850.819 207.973C846.573 214.832 842.164 222.018 837.591 229.53C833.182 236.879 829.099 244.227 825.343 251.576C821.751 258.761 818.73 265.702 816.28 272.397C813.994 279.093 812.851 285.217 812.851 290.769C812.851 293.709 813.667 296.077 815.3 297.873C817.096 299.506 818.974 300.976 820.934 302.282C822.894 303.589 824.69 304.895 826.323 306.202C828.12 307.508 829.018 309.304 829.018 311.591C829.018 313.061 828.365 314.204 827.058 315.02C825.752 315.673 824.2 316 822.404 316C815.545 316 809.584 314.122 804.522 310.366C799.459 306.447 796.928 300.894 796.928 293.709Z" fill="white"/>
<path d="M-8 451.348C-8 451.348 27.0974 390.427 173.644 366.957C320.191 343.488 578.188 503.78 681.017 517.762C783.846 531.744 842.957 538.735 914.384 471.322C985.81 403.909 1048 334 1048 334" stroke="url(#paint1_linear_276_137)" stroke-width="100" stroke-linecap="round"/>
<path d="M38.512 469V446.088H41.2V466.456H51.328V469H38.512ZM60.1935 469.48C57.7828 469.48 55.7775 468.653 54.1775 467C52.5775 465.336 51.7775 463.267 51.7775 460.792C51.7775 458.285 52.5775 456.216 54.1775 454.584C55.7882 452.952 57.7935 452.136 60.1935 452.136C62.5935 452.136 64.5935 452.963 66.1935 454.616C67.8042 456.259 68.6095 458.317 68.6095 460.792C68.6095 463.267 67.8095 465.336 66.2095 467C64.6202 468.653 62.6148 469.48 60.1935 469.48ZM60.1935 467.048C61.8042 467.048 63.1642 466.461 64.2735 465.288C65.3828 464.115 65.9375 462.616 65.9375 460.792C65.9375 458.947 65.3775 457.453 64.2575 456.312C63.1482 455.16 61.7935 454.584 60.1935 454.584C58.5828 454.584 57.2228 455.16 56.1135 456.312C55.0042 457.464 54.4495 458.957 54.4495 460.792C54.4495 462.616 54.9988 464.115 56.0975 465.288C57.1962 466.461 58.5615 467.048 60.1935 467.048ZM77.848 469.48C75.4587 469.48 73.48 468.664 71.912 467.032C70.344 465.389 69.56 463.293 69.56 460.744C69.56 458.205 70.3493 456.136 71.928 454.536C73.5173 452.936 75.496 452.136 77.864 452.136C78.856 452.136 79.7787 452.28 80.632 452.568C81.496 452.856 82.2853 453.315 83 453.944C83.7147 454.573 84.3493 455.485 84.904 456.68L82.536 457.688C82.1093 456.867 81.672 456.243 81.224 455.816C80.7867 455.389 80.2693 455.075 79.672 454.872C79.0853 454.669 78.4453 454.568 77.752 454.568C76.2267 454.568 74.92 455.133 73.832 456.264C72.7547 457.395 72.216 458.888 72.216 460.744C72.216 462.589 72.7547 464.104 73.832 465.288C74.9093 466.461 76.216 467.048 77.752 467.048C78.456 467.048 79.1067 466.941 79.704 466.728C80.3013 466.515 80.8133 466.216 81.24 465.832C81.6773 465.437 82.1573 464.787 82.68 463.88L85 465C84.36 466.205 83.6933 467.107 83 467.704C82.3173 468.291 81.5387 468.733 80.664 469.032C79.8 469.331 78.8613 469.48 77.848 469.48ZM91.8142 469.48C89.9902 469.48 88.5022 468.968 87.3503 467.944C86.2089 466.92 85.6382 465.597 85.6382 463.976C85.6382 462.344 86.2782 461.032 87.5582 460.04C88.8489 459.037 90.5076 458.536 92.5343 458.536C93.4196 458.536 94.2943 458.637 95.1583 458.84C96.0329 459.043 96.7263 459.299 97.2383 459.608V458.6C97.2383 457.384 96.8116 456.403 95.9583 455.656C95.1049 454.909 94.0223 454.536 92.7102 454.536C92.0063 454.536 91.4143 454.621 90.9343 454.792C90.4543 454.952 90.0436 455.155 89.7023 455.4C89.3716 455.645 89.0463 455.939 88.7263 456.28C88.4169 456.621 88.2622 456.792 88.2622 456.792L86.2302 455.272C86.2302 455.272 86.4382 455.048 86.8542 454.6C87.2703 454.141 87.7449 453.731 88.2782 453.368C88.8116 452.995 89.4196 452.696 90.1023 452.472C90.7849 452.248 91.6649 452.136 92.7423 452.136C94.9183 452.136 96.6356 452.717 97.8943 453.88C99.1636 455.043 99.7983 456.616 99.7983 458.6V469H97.2383V465.096L98.1663 466.584H97.1583C96.6356 467.459 95.8889 468.163 94.9183 468.696C93.9583 469.219 92.9236 469.48 91.8142 469.48ZM92.0543 467.096C93.4943 467.096 94.7156 466.584 95.7183 465.56C96.7316 464.525 97.2383 463.315 97.2383 461.928V461.896C96.7049 461.533 96.0543 461.251 95.2863 461.048C94.5289 460.835 93.7343 460.728 92.9023 460.728C91.5049 460.728 90.4009 461.005 89.5903 461.56C88.7796 462.104 88.3742 462.92 88.3742 464.008C88.3742 464.936 88.7209 465.683 89.4142 466.248C90.1076 466.813 90.9876 467.096 92.0543 467.096ZM102.349 469V446.088H105.021V469H102.349ZM124.88 469.48C121.509 469.48 118.698 468.344 116.448 466.072C114.197 463.789 113.072 460.931 113.072 457.496C113.072 454.051 114.208 451.208 116.48 448.968C118.752 446.728 121.557 445.608 124.896 445.608C126.048 445.608 127.136 445.757 128.16 446.056C129.194 446.355 130.122 446.771 130.944 447.304C131.776 447.837 132.41 448.355 132.848 448.856C133.296 449.357 133.52 449.608 133.52 449.608L131.6 451.272C131.6 451.272 131.386 451.048 130.96 450.6C130.544 450.141 130.037 449.725 129.44 449.352C128.842 448.979 128.17 448.685 127.424 448.472C126.677 448.259 125.834 448.152 124.896 448.152C122.325 448.152 120.165 449.011 118.416 450.728C116.666 452.445 115.792 454.696 115.792 457.48C115.792 460.253 116.656 462.52 118.384 464.28C120.112 466.04 122.277 466.92 124.88 466.92C125.84 466.92 126.73 466.792 127.552 466.536C128.384 466.269 129.157 465.901 129.872 465.432C130.586 464.963 131.13 464.509 131.504 464.072C131.888 463.635 132.08 463.416 132.08 463.416L134.08 465.192C134.08 465.192 133.824 465.485 133.312 466.072C132.8 466.648 132.101 467.213 131.216 467.768C130.33 468.312 129.36 468.733 128.304 469.032C127.258 469.331 126.117 469.48 124.88 469.48ZM142.857 469.48C140.447 469.48 138.441 468.653 136.841 467C135.241 465.336 134.441 463.267 134.441 460.792C134.441 458.285 135.241 456.216 136.841 454.584C138.452 452.952 140.457 452.136 142.857 452.136C145.257 452.136 147.257 452.963 148.857 454.616C150.468 456.259 151.273 458.317 151.273 460.792C151.273 463.267 150.473 465.336 148.873 467C147.284 468.653 145.279 469.48 142.857 469.48ZM142.857 467.048C144.468 467.048 145.828 466.461 146.937 465.288C148.047 464.115 148.601 462.616 148.601 460.792C148.601 458.947 148.041 457.453 146.921 456.312C145.812 455.16 144.457 454.584 142.857 454.584C141.247 454.584 139.887 455.16 138.777 456.312C137.668 457.464 137.113 458.957 137.113 460.792C137.113 462.616 137.663 464.115 138.761 465.288C139.86 466.461 141.225 467.048 142.857 467.048ZM153.104 469V452.632H155.664V455.496L155.248 455.048H155.744C156.224 454.216 156.96 453.523 157.952 452.968C158.944 452.413 159.984 452.136 161.072 452.136C162.992 452.136 164.48 452.701 165.536 453.832C166.592 454.963 167.12 456.525 167.12 458.52V469H164.448V458.92C164.448 457.501 164.106 456.424 163.424 455.688C162.752 454.941 161.733 454.568 160.368 454.568C159.077 454.568 157.989 455.08 157.104 456.104C156.218 457.117 155.776 458.339 155.776 459.768V469H153.104ZM175.62 469.48C174.33 469.48 173.279 469.085 172.468 468.296C171.668 467.496 171.268 466.387 171.268 464.968V448.072H173.924V464.376C173.924 465.293 174.106 465.965 174.468 466.392C174.831 466.819 175.364 467.032 176.068 467.032C176.25 467.032 176.447 467.016 176.66 466.984C176.874 466.941 177.146 466.867 177.476 466.76C177.818 466.653 177.988 466.6 177.988 466.6V469.064C177.988 469.064 177.839 469.107 177.54 469.192C177.252 469.288 176.954 469.357 176.644 469.4C176.346 469.453 176.004 469.48 175.62 469.48ZM168.42 455.032V452.632H177.956V455.032H168.42ZM187.106 469.48C184.738 469.48 182.78 468.664 181.234 467.032C179.687 465.4 178.914 463.32 178.914 460.792C178.914 458.296 179.671 456.232 181.186 454.6C182.7 452.957 184.604 452.136 186.898 452.136C189.255 452.136 191.143 452.851 192.562 454.28C193.991 455.699 194.706 457.469 194.706 459.592V461.336H180.466V459.112H191.906C191.852 457.811 191.372 456.728 190.466 455.864C189.559 455 188.37 454.568 186.898 454.568C185.34 454.568 184.066 455.139 183.074 456.28C182.082 457.411 181.586 458.915 181.586 460.792C181.586 462.691 182.13 464.211 183.218 465.352C184.306 466.483 185.644 467.048 187.234 467.048C187.991 467.048 188.642 466.947 189.186 466.744C189.73 466.531 190.22 466.237 190.658 465.864C191.095 465.48 191.58 464.872 192.114 464.04L194.37 465.144C193.794 466.307 193.154 467.176 192.45 467.752C191.756 468.328 190.983 468.76 190.13 469.048C189.287 469.336 188.279 469.48 187.106 469.48ZM206.171 469L201.307 461.688H200.891L194.459 452.632H197.531L202.587 459.944H202.859L209.227 469H206.171ZM194.299 469L200.811 459.672H201.355L206.187 452.632H209.227L202.843 461.576H202.379L197.339 469H194.299ZM216.249 469.48C214.958 469.48 213.908 469.085 213.097 468.296C212.297 467.496 211.897 466.387 211.897 464.968V448.072H214.553V464.376C214.553 465.293 214.734 465.965 215.097 466.392C215.46 466.819 215.993 467.032 216.697 467.032C216.878 467.032 217.076 467.016 217.289 466.984C217.502 466.941 217.774 466.867 218.105 466.76C218.446 466.653 218.617 466.6 218.617 466.6V469.064C218.617 469.064 218.468 469.107 218.169 469.192C217.881 469.288 217.582 469.357 217.273 469.4C216.974 469.453 216.633 469.48 216.249 469.48ZM209.049 455.032V452.632H218.585V455.032H209.049ZM226.842 469V446.088H230.618L238.106 464.936H238.186L245.674 446.088H249.466V469H246.81V453.992L246.922 450.088H246.842L239.226 469H237.066L229.466 450.12H229.386L229.498 454.024V469H226.842ZM257.954 469.48C256.13 469.48 254.642 468.968 253.49 467.944C252.349 466.92 251.778 465.597 251.778 463.976C251.778 462.344 252.418 461.032 253.698 460.04C254.989 459.037 256.648 458.536 258.674 458.536C259.56 458.536 260.434 458.637 261.298 458.84C262.173 459.043 262.866 459.299 263.378 459.608V458.6C263.378 457.384 262.952 456.403 262.098 455.656C261.245 454.909 260.162 454.536 258.85 454.536C258.146 454.536 257.554 454.621 257.074 454.792C256.594 454.952 256.184 455.155 255.842 455.4C255.512 455.645 255.186 455.939 254.866 456.28C254.557 456.621 254.402 456.792 254.402 456.792L252.37 455.272C252.37 455.272 252.578 455.048 252.994 454.6C253.41 454.141 253.885 453.731 254.418 453.368C254.952 452.995 255.56 452.696 256.242 452.472C256.925 452.248 257.805 452.136 258.882 452.136C261.058 452.136 262.776 452.717 264.034 453.88C265.304 455.043 265.938 456.616 265.938 458.6V469H263.378V465.096L264.306 466.584H263.298C262.776 467.459 262.029 468.163 261.058 468.696C260.098 469.219 259.064 469.48 257.954 469.48ZM258.194 467.096C259.634 467.096 260.856 466.584 261.858 465.56C262.872 464.525 263.378 463.315 263.378 461.928V461.896C262.845 461.533 262.194 461.251 261.426 461.048C260.669 460.835 259.874 460.728 259.042 460.728C257.645 460.728 256.541 461.005 255.73 461.56C254.92 462.104 254.514 462.92 254.514 464.008C254.514 464.936 254.861 465.683 255.554 466.248C256.248 466.813 257.128 467.096 258.194 467.096ZM268.489 469V452.632H271.049V455.496L270.633 455.048H271.129C271.609 454.216 272.345 453.523 273.337 452.968C274.329 452.413 275.369 452.136 276.457 452.136C278.377 452.136 279.865 452.701 280.921 453.832C281.977 454.963 282.505 456.525 282.505 458.52V469H279.833V458.92C279.833 457.501 279.491 456.424 278.809 455.688C278.137 454.941 277.118 454.568 275.753 454.568C274.462 454.568 273.374 455.08 272.489 456.104C271.603 457.117 271.161 458.339 271.161 459.768V469H268.489ZM290.332 469.48C288.508 469.48 287.02 468.968 285.868 467.944C284.726 466.92 284.156 465.597 284.156 463.976C284.156 462.344 284.796 461.032 286.076 460.04C287.366 459.037 289.025 458.536 291.052 458.536C291.937 458.536 292.812 458.637 293.676 458.84C294.55 459.043 295.244 459.299 295.756 459.608V458.6C295.756 457.384 295.329 456.403 294.476 455.656C293.622 454.909 292.54 454.536 291.228 454.536C290.524 454.536 289.932 454.621 289.452 454.792C288.972 454.952 288.561 455.155 288.22 455.4C287.889 455.645 287.564 455.939 287.244 456.28C286.934 456.621 286.78 456.792 286.78 456.792L284.748 455.272C284.748 455.272 284.956 455.048 285.372 454.6C285.788 454.141 286.262 453.731 286.796 453.368C287.329 452.995 287.937 452.696 288.62 452.472C289.302 452.248 290.182 452.136 291.26 452.136C293.436 452.136 295.153 452.717 296.412 453.88C297.681 455.043 298.316 456.616 298.316 458.6V469H295.756V465.096L296.684 466.584H295.676C295.153 467.459 294.406 468.163 293.436 468.696C292.476 469.219 291.441 469.48 290.332 469.48ZM290.572 467.096C292.012 467.096 293.233 466.584 294.236 465.56C295.249 464.525 295.756 463.315 295.756 461.928V461.896C295.222 461.533 294.572 461.251 293.804 461.048C293.046 460.835 292.252 460.728 291.42 460.728C290.022 460.728 288.918 461.005 288.108 461.56C287.297 462.104 286.892 462.92 286.892 464.008C286.892 464.936 287.238 465.683 287.932 466.248C288.625 466.813 289.505 467.096 290.572 467.096ZM308.082 476.312C307.058 476.312 306.109 476.168 305.234 475.88C304.37 475.603 303.586 475.192 302.882 474.648C302.189 474.104 301.656 473.507 301.282 472.856C300.909 472.205 300.722 471.88 300.722 471.88L303.074 470.632C303.074 470.632 303.234 470.888 303.554 471.4C303.874 471.923 304.258 472.371 304.706 472.744C305.154 473.117 305.666 473.4 306.242 473.592C306.818 473.784 307.432 473.88 308.082 473.88C309.8 473.88 311.112 473.384 312.018 472.392C312.925 471.4 313.378 470.003 313.378 468.2V466.408H313.298C312.744 467.272 311.981 467.965 311.01 468.488C310.05 469 308.941 469.256 307.682 469.256C305.506 469.256 303.677 468.467 302.194 466.888C300.722 465.309 299.986 463.235 299.986 460.664C299.986 458.115 300.728 456.056 302.21 454.488C303.693 452.92 305.538 452.136 307.746 452.136C308.93 452.136 310.034 452.397 311.058 452.92C312.082 453.443 312.866 454.136 313.41 455H314.13L313.49 455.832V452.632H316.05V468.216C316.05 470.765 315.341 472.749 313.922 474.168C312.514 475.597 310.568 476.312 308.082 476.312ZM308.082 466.824C309.65 466.824 310.946 466.259 311.97 465.128C312.994 463.997 313.506 462.493 313.506 460.616C313.506 458.771 312.994 457.304 311.97 456.216C310.946 455.117 309.65 454.568 308.082 454.568C306.525 454.568 305.229 455.117 304.194 456.216C303.16 457.304 302.642 458.781 302.642 460.648C302.642 462.611 303.154 464.131 304.178 465.208C305.202 466.285 306.504 466.824 308.082 466.824ZM326.086 469.48C323.718 469.48 321.76 468.664 320.214 467.032C318.667 465.4 317.894 463.32 317.894 460.792C317.894 458.296 318.651 456.232 320.166 454.6C321.68 452.957 323.584 452.136 325.878 452.136C328.235 452.136 330.123 452.851 331.542 454.28C332.971 455.699 333.686 457.469 333.686 459.592V461.336H319.446V459.112H330.886C330.832 457.811 330.352 456.728 329.446 455.864C328.539 455 327.35 454.568 325.878 454.568C324.32 454.568 323.046 455.139 322.054 456.28C321.062 457.411 320.566 458.915 320.566 460.792C320.566 462.691 321.11 464.211 322.198 465.352C323.286 466.483 324.624 467.048 326.214 467.048C326.971 467.048 327.622 466.947 328.166 466.744C328.71 466.531 329.2 466.237 329.638 465.864C330.075 465.48 330.56 464.872 331.094 464.04L333.35 465.144C332.774 466.307 332.134 467.176 331.43 467.752C330.736 468.328 329.963 468.76 329.11 469.048C328.267 469.336 327.259 469.48 326.086 469.48ZM335.525 469V452.632H338.085V455.352L337.813 455.048H338.165C338.645 454.205 339.36 453.512 340.309 452.968C341.269 452.413 342.272 452.136 343.317 452.136C344.501 452.136 345.541 452.429 346.437 453.016C347.333 453.592 347.978 454.371 348.373 455.352C348.97 454.317 349.754 453.523 350.725 452.968C351.706 452.413 352.794 452.136 353.989 452.136C355.813 452.136 357.21 452.696 358.181 453.816C359.162 454.925 359.653 456.483 359.653 458.488V469H357.013V458.92C357.013 457.459 356.709 456.371 356.101 455.656C355.504 454.941 354.576 454.584 353.317 454.584C352.09 454.584 351.05 455.085 350.197 456.088C349.354 457.08 348.933 458.296 348.933 459.736V469H346.261V458.968C346.261 457.496 345.957 456.397 345.349 455.672C344.741 454.936 343.818 454.568 342.581 454.568C341.354 454.568 340.314 455.08 339.461 456.104C338.618 457.128 338.197 458.36 338.197 459.8V469H335.525ZM369.526 469.48C367.158 469.48 365.2 468.664 363.654 467.032C362.107 465.4 361.334 463.32 361.334 460.792C361.334 458.296 362.091 456.232 363.606 454.6C365.12 452.957 367.024 452.136 369.318 452.136C371.675 452.136 373.563 452.851 374.982 454.28C376.411 455.699 377.126 457.469 377.126 459.592V461.336H362.886V459.112H374.326C374.272 457.811 373.792 456.728 372.886 455.864C371.979 455 370.79 454.568 369.318 454.568C367.76 454.568 366.486 455.139 365.494 456.28C364.502 457.411 364.006 458.915 364.006 460.792C364.006 462.691 364.55 464.211 365.638 465.352C366.726 466.483 368.064 467.048 369.654 467.048C370.411 467.048 371.062 466.947 371.606 466.744C372.15 466.531 372.64 466.237 373.078 465.864C373.515 465.48 374 464.872 374.534 464.04L376.79 465.144C376.214 466.307 375.574 467.176 374.87 467.752C374.176 468.328 373.403 468.76 372.55 469.048C371.707 469.336 370.699 469.48 369.526 469.48ZM378.965 469V452.632H381.525V455.496L381.109 455.048H381.605C382.085 454.216 382.821 453.523 383.813 452.968C384.805 452.413 385.845 452.136 386.933 452.136C388.853 452.136 390.341 452.701 391.397 453.832C392.453 454.963 392.981 456.525 392.981 458.52V469H390.309V458.92C390.309 457.501 389.968 456.424 389.285 455.688C388.613 454.941 387.594 454.568 386.229 454.568C384.938 454.568 383.85 455.08 382.965 456.104C382.08 457.117 381.637 458.339 381.637 459.768V469H378.965ZM401.481 469.48C400.191 469.48 399.14 469.085 398.329 468.296C397.529 467.496 397.129 466.387 397.129 464.968V448.072H399.785V464.376C399.785 465.293 399.967 465.965 400.329 466.392C400.692 466.819 401.225 467.032 401.929 467.032C402.111 467.032 402.308 467.016 402.521 466.984C402.735 466.941 403.007 466.867 403.337 466.76C403.679 466.653 403.849 466.6 403.849 466.6V469.064C403.849 469.064 403.7 469.107 403.401 469.192C403.113 469.288 402.815 469.357 402.505 469.4C402.207 469.453 401.865 469.48 401.481 469.48ZM394.281 455.032V452.632H403.817V455.032H394.281ZM417.195 466.152V451.944H419.723V466.152H417.195ZM411.499 460.264V457.832H425.435V460.264H411.499ZM440.947 469.48C439.603 469.48 438.413 469.261 437.379 468.824C436.355 468.387 435.523 467.784 434.883 467.016C434.243 466.248 433.757 465.443 433.427 464.6C433.096 463.757 432.931 463.336 432.931 463.336L435.475 462.312C435.475 462.312 435.613 462.659 435.891 463.352C436.179 464.045 436.557 464.675 437.027 465.24C437.507 465.795 438.088 466.221 438.771 466.52C439.464 466.819 440.248 466.968 441.123 466.968C442.541 466.968 443.683 466.6 444.547 465.864C445.421 465.117 445.859 464.136 445.859 462.92C445.859 461.96 445.517 461.123 444.835 460.408C444.163 459.693 442.755 458.984 440.611 458.28C437.965 457.405 436.173 456.44 435.235 455.384C434.296 454.317 433.827 453.053 433.827 451.592C433.827 449.907 434.483 448.488 435.795 447.336C437.107 446.184 438.792 445.608 440.851 445.608C441.981 445.608 442.984 445.773 443.859 446.104C444.733 446.435 445.48 446.909 446.099 447.528C446.717 448.136 447.171 448.739 447.459 449.336C447.757 449.923 447.907 450.216 447.907 450.216L445.427 451.288C445.427 451.288 445.331 451.085 445.139 450.68C444.957 450.275 444.653 449.859 444.227 449.432C443.8 449.005 443.304 448.685 442.739 448.472C442.184 448.248 441.533 448.136 440.787 448.136C439.539 448.136 438.515 448.445 437.715 449.064C436.925 449.672 436.531 450.477 436.531 451.48C436.531 452.28 436.829 453.005 437.427 453.656C438.024 454.296 439.597 455.043 442.147 455.896C444.323 456.611 445.928 457.539 446.963 458.68C447.997 459.821 448.515 461.208 448.515 462.84C448.515 464.909 447.8 466.536 446.371 467.72C444.952 468.893 443.144 469.48 440.947 469.48ZM457.66 469.48C455.292 469.48 453.334 468.664 451.788 467.032C450.241 465.4 449.468 463.32 449.468 460.792C449.468 458.296 450.225 456.232 451.74 454.6C453.254 452.957 455.158 452.136 457.452 452.136C459.809 452.136 461.697 452.851 463.116 454.28C464.545 455.699 465.26 457.469 465.26 459.592V461.336H451.02V459.112H462.46C462.406 457.811 461.926 456.728 461.02 455.864C460.113 455 458.924 454.568 457.452 454.568C455.894 454.568 454.62 455.139 453.628 456.28C452.636 457.411 452.14 458.915 452.14 460.792C452.14 462.691 452.684 464.211 453.772 465.352C454.86 466.483 456.198 467.048 457.788 467.048C458.545 467.048 459.196 466.947 459.74 466.744C460.284 466.531 460.774 466.237 461.212 465.864C461.649 465.48 462.134 464.872 462.668 464.04L464.924 465.144C464.348 466.307 463.708 467.176 463.004 467.752C462.31 468.328 461.537 468.76 460.684 469.048C459.841 469.336 458.833 469.48 457.66 469.48ZM472.347 469.48C470.523 469.48 469.035 468.968 467.883 467.944C466.741 466.92 466.171 465.597 466.171 463.976C466.171 462.344 466.811 461.032 468.091 460.04C469.381 459.037 471.04 458.536 473.067 458.536C473.952 458.536 474.827 458.637 475.691 458.84C476.565 459.043 477.259 459.299 477.771 459.608V458.6C477.771 457.384 477.344 456.403 476.491 455.656C475.637 454.909 474.555 454.536 473.243 454.536C472.539 454.536 471.947 454.621 471.467 454.792C470.987 454.952 470.576 455.155 470.235 455.4C469.904 455.645 469.579 455.939 469.259 456.28C468.949 456.621 468.795 456.792 468.795 456.792L466.763 455.272C466.763 455.272 466.971 455.048 467.387 454.6C467.803 454.141 468.277 453.731 468.811 453.368C469.344 452.995 469.952 452.696 470.635 452.472C471.317 452.248 472.197 452.136 473.275 452.136C475.451 452.136 477.168 452.717 478.427 453.88C479.696 455.043 480.331 456.616 480.331 458.6V469H477.771V465.096L478.699 466.584H477.691C477.168 467.459 476.421 468.163 475.451 468.696C474.491 469.219 473.456 469.48 472.347 469.48ZM472.587 467.096C474.027 467.096 475.248 466.584 476.251 465.56C477.264 464.525 477.771 463.315 477.771 461.928V461.896C477.237 461.533 476.587 461.251 475.819 461.048C475.061 460.835 474.267 460.728 473.435 460.728C472.037 460.728 470.933 461.005 470.123 461.56C469.312 462.104 468.907 462.92 468.907 464.008C468.907 464.936 469.253 465.683 469.947 466.248C470.64 466.813 471.52 467.096 472.587 467.096ZM482.881 469V452.632H485.441V455.56L485.041 455.256H485.521C485.863 454.36 486.487 453.619 487.393 453.032C488.3 452.435 489.239 452.136 490.209 452.136C490.476 452.136 490.753 452.157 491.041 452.2C491.34 452.243 491.601 452.296 491.825 452.36C492.06 452.424 492.177 452.456 492.177 452.456V455.256C492.177 455.256 492.017 455.213 491.697 455.128C491.388 455.043 491.068 454.979 490.737 454.936C490.407 454.883 490.145 454.856 489.953 454.856C488.748 454.856 487.713 455.336 486.849 456.296C485.985 457.245 485.553 458.408 485.553 459.784V469H482.881ZM500.072 469.48C497.682 469.48 495.704 468.664 494.136 467.032C492.568 465.389 491.784 463.293 491.784 460.744C491.784 458.205 492.573 456.136 494.152 454.536C495.741 452.936 497.72 452.136 500.088 452.136C501.08 452.136 502.002 452.28 502.856 452.568C503.72 452.856 504.509 453.315 505.224 453.944C505.938 454.573 506.573 455.485 507.128 456.68L504.76 457.688C504.333 456.867 503.896 456.243 503.448 455.816C503.01 455.389 502.493 455.075 501.896 454.872C501.309 454.669 500.669 454.568 499.976 454.568C498.45 454.568 497.144 455.133 496.056 456.264C494.978 457.395 494.44 458.888 494.44 460.744C494.44 462.589 494.978 464.104 496.056 465.288C497.133 466.461 498.44 467.048 499.976 467.048C500.68 467.048 501.33 466.941 501.928 466.728C502.525 466.515 503.037 466.216 503.464 465.832C503.901 465.437 504.381 464.787 504.904 463.88L507.224 465C506.584 466.205 505.917 467.107 505.224 467.704C504.541 468.291 503.762 468.733 502.888 469.032C502.024 469.331 501.085 469.48 500.072 469.48ZM508.79 469V446.088H511.462V455.048H511.542C512.022 454.195 512.731 453.496 513.67 452.952C514.619 452.408 515.649 452.136 516.758 452.136C518.689 452.136 520.177 452.707 521.222 453.848C522.278 454.989 522.806 456.547 522.806 458.52V469H520.134V458.92C520.134 457.544 519.793 456.477 519.11 455.72C518.427 454.952 517.435 454.568 516.134 454.568C514.865 454.568 513.766 455.096 512.838 456.152C511.921 457.208 511.462 458.44 511.462 459.848V469H508.79ZM531.805 469V446.088H544.637V448.632H534.493V466.456H544.829V469H531.805ZM533.261 458.792V456.264H544.077V458.792H533.261ZM547.575 469V452.632H550.135V455.496L549.719 455.048H550.215C550.695 454.216 551.431 453.523 552.423 452.968C553.415 452.413 554.455 452.136 555.543 452.136C557.463 452.136 558.951 452.701 560.007 453.832C561.063 454.963 561.591 456.525 561.591 458.52V469H558.919V458.92C558.919 457.501 558.578 456.424 557.895 455.688C557.223 454.941 556.204 454.568 554.839 454.568C553.548 454.568 552.46 455.08 551.575 456.104C550.69 457.117 550.247 458.339 550.247 459.768V469H547.575ZM571.386 476.312C570.362 476.312 569.413 476.168 568.538 475.88C567.674 475.603 566.89 475.192 566.186 474.648C565.493 474.104 564.959 473.507 564.586 472.856C564.213 472.205 564.026 471.88 564.026 471.88L566.378 470.632C566.378 470.632 566.538 470.888 566.858 471.4C567.178 471.923 567.562 472.371 568.01 472.744C568.458 473.117 568.97 473.4 569.546 473.592C570.122 473.784 570.735 473.88 571.386 473.88C573.103 473.88 574.415 473.384 575.322 472.392C576.229 471.4 576.682 470.003 576.682 468.2V466.408H576.602C576.047 467.272 575.285 467.965 574.314 468.488C573.354 469 572.245 469.256 570.986 469.256C568.81 469.256 566.981 468.467 565.498 466.888C564.026 465.309 563.29 463.235 563.29 460.664C563.29 458.115 564.031 456.056 565.514 454.488C566.997 452.92 568.842 452.136 571.05 452.136C572.234 452.136 573.338 452.397 574.362 452.92C575.386 453.443 576.17 454.136 576.714 455H577.434L576.794 455.832V452.632H579.354V468.216C579.354 470.765 578.645 472.749 577.226 474.168C575.818 475.597 573.871 476.312 571.386 476.312ZM571.386 466.824C572.954 466.824 574.25 466.259 575.274 465.128C576.298 463.997 576.81 462.493 576.81 460.616C576.81 458.771 576.298 457.304 575.274 456.216C574.25 455.117 572.954 454.568 571.386 454.568C569.829 454.568 568.533 455.117 567.498 456.216C566.463 457.304 565.946 458.781 565.946 460.648C565.946 462.611 566.458 464.131 567.482 465.208C568.506 466.285 569.807 466.824 571.386 466.824ZM582.366 469V452.632H585.038V469H582.366ZM583.694 449.4C583.192 449.4 582.76 449.224 582.398 448.872C582.046 448.509 581.87 448.077 581.87 447.576C581.87 447.064 582.046 446.637 582.398 446.296C582.76 445.955 583.192 445.784 583.694 445.784C584.206 445.784 584.632 445.955 584.974 446.296C585.315 446.637 585.486 447.064 585.486 447.576C585.486 448.077 585.315 448.509 584.974 448.872C584.632 449.224 584.206 449.4 583.694 449.4ZM588.016 469V452.632H590.576V455.496L590.16 455.048H590.656C591.136 454.216 591.872 453.523 592.864 452.968C593.856 452.413 594.896 452.136 595.984 452.136C597.904 452.136 599.392 452.701 600.448 453.832C601.504 454.963 602.032 456.525 602.032 458.52V469H599.36V458.92C599.36 457.501 599.019 456.424 598.336 455.688C597.664 454.941 596.646 454.568 595.28 454.568C593.99 454.568 592.902 455.08 592.016 456.104C591.131 457.117 590.688 458.339 590.688 459.768V469H588.016ZM611.923 469.48C609.555 469.48 607.598 468.664 606.051 467.032C604.505 465.4 603.731 463.32 603.731 460.792C603.731 458.296 604.489 456.232 606.003 454.6C607.518 452.957 609.422 452.136 611.715 452.136C614.073 452.136 615.961 452.851 617.379 454.28C618.809 455.699 619.523 457.469 619.523 459.592V461.336H605.283V459.112H616.723C616.67 457.811 616.19 456.728 615.283 455.864C614.377 455 613.187 454.568 611.715 454.568C610.158 454.568 608.883 455.139 607.891 456.28C606.899 457.411 606.403 458.915 606.403 460.792C606.403 462.691 606.947 464.211 608.035 465.352C609.123 466.483 610.462 467.048 612.051 467.048C612.809 467.048 613.459 466.947 614.003 466.744C614.547 466.531 615.038 466.237 615.475 465.864C615.913 465.48 616.398 464.872 616.931 464.04L619.187 465.144C618.611 466.307 617.971 467.176 617.267 467.752C616.574 468.328 615.801 468.76 614.947 469.048C614.105 469.336 613.097 469.48 611.923 469.48ZM632.902 466.152V451.944H635.43V466.152H632.902ZM627.206 460.264V457.832H641.142V460.264H627.206ZM650.222 469V446.088H653.998L661.486 464.936H661.566L669.054 446.088H672.846V469H670.19V453.992L670.302 450.088H670.222L662.606 469H660.446L652.846 450.12H652.766L652.878 454.024V469H650.222ZM683.398 469.48C681.03 469.48 679.073 468.664 677.526 467.032C675.98 465.4 675.206 463.32 675.206 460.792C675.206 458.296 675.964 456.232 677.478 454.6C678.993 452.957 680.897 452.136 683.19 452.136C685.548 452.136 687.436 452.851 688.854 454.28C690.284 455.699 690.998 457.469 690.998 459.592V461.336H676.758V459.112H688.198C688.145 457.811 687.665 456.728 686.758 455.864C685.852 455 684.662 454.568 683.19 454.568C681.633 454.568 680.358 455.139 679.366 456.28C678.374 457.411 677.878 458.915 677.878 460.792C677.878 462.691 678.422 464.211 679.51 465.352C680.598 466.483 681.937 467.048 683.526 467.048C684.284 467.048 684.934 466.947 685.478 466.744C686.022 466.531 686.513 466.237 686.95 465.864C687.388 465.48 687.873 464.872 688.406 464.04L690.662 465.144C690.086 466.307 689.446 467.176 688.742 467.752C688.049 468.328 687.276 468.76 686.422 469.048C685.58 469.336 684.572 469.48 683.398 469.48ZM692.838 469V452.632H695.398V455.352L695.126 455.048H695.478C695.958 454.205 696.672 453.512 697.622 452.968C698.582 452.413 699.584 452.136 700.63 452.136C701.814 452.136 702.854 452.429 703.75 453.016C704.646 453.592 705.291 454.371 705.686 455.352C706.283 454.317 707.067 453.523 708.038 452.968C709.019 452.413 710.107 452.136 711.302 452.136C713.126 452.136 714.523 452.696 715.494 453.816C716.475 454.925 716.966 456.483 716.966 458.488V469H714.326V458.92C714.326 457.459 714.022 456.371 713.414 455.656C712.816 454.941 711.888 454.584 710.63 454.584C709.403 454.584 708.363 455.085 707.51 456.088C706.667 457.08 706.246 458.296 706.246 459.736V469H703.574V458.968C703.574 457.496 703.27 456.397 702.662 455.672C702.054 454.936 701.131 454.568 699.894 454.568C698.667 454.568 697.627 455.08 696.774 456.104C695.931 457.128 695.51 458.36 695.51 459.8V469H692.838ZM727.062 469.48C724.652 469.48 722.646 468.653 721.046 467C719.446 465.336 718.646 463.267 718.646 460.792C718.646 458.285 719.446 456.216 721.046 454.584C722.657 452.952 724.662 452.136 727.062 452.136C729.462 452.136 731.462 452.963 733.062 454.616C734.673 456.259 735.478 458.317 735.478 460.792C735.478 463.267 734.678 465.336 733.078 467C731.489 468.653 729.484 469.48 727.062 469.48ZM727.062 467.048C728.673 467.048 730.033 466.461 731.142 465.288C732.252 464.115 732.806 462.616 732.806 460.792C732.806 458.947 732.246 457.453 731.126 456.312C730.017 455.16 728.662 454.584 727.062 454.584C725.452 454.584 724.092 455.16 722.982 456.312C721.873 457.464 721.318 458.957 721.318 460.792C721.318 462.616 721.868 464.115 722.966 465.288C724.065 466.461 725.43 467.048 727.062 467.048ZM737.309 469V452.632H739.869V455.56L739.469 455.256H739.949C740.29 454.36 740.914 453.619 741.821 453.032C742.727 452.435 743.666 452.136 744.637 452.136C744.903 452.136 745.181 452.157 745.469 452.2C745.767 452.243 746.029 452.296 746.253 452.36C746.487 452.424 746.605 452.456 746.605 452.456V455.256C746.605 455.256 746.445 455.213 746.125 455.128C745.815 455.043 745.495 454.979 745.165 454.936C744.834 454.883 744.573 454.856 744.381 454.856C743.175 454.856 742.141 455.336 741.277 456.296C740.413 457.245 739.981 458.408 739.981 459.784V469H737.309ZM749.342 475.816L753.374 467.032L753.454 469L746.142 452.632H749.022L753.854 463.832L754.238 464.92H754.334L754.75 463.8L759.31 452.632H762.174L752.142 475.816H749.342ZM767.784 455.032V452.632H777.608V455.032H767.784ZM770.792 469V450.68C770.792 449.165 771.267 447.944 772.216 447.016C773.176 446.077 774.403 445.608 775.896 445.608C776.312 445.608 776.675 445.635 776.984 445.688C777.304 445.731 777.603 445.789 777.88 445.864C778.157 445.928 778.296 445.96 778.296 445.96V448.44C778.296 448.44 778.152 448.408 777.864 448.344C777.576 448.269 777.283 448.211 776.984 448.168C776.685 448.125 776.36 448.104 776.008 448.104C775.272 448.104 774.664 448.339 774.184 448.808C773.704 449.267 773.464 449.928 773.464 450.792V453.208V453.816V469H770.792ZM785.881 469.48C783.47 469.48 781.465 468.653 779.865 467C778.265 465.336 777.465 463.267 777.465 460.792C777.465 458.285 778.265 456.216 779.865 454.584C781.476 452.952 783.481 452.136 785.881 452.136C788.281 452.136 790.281 452.963 791.881 454.616C793.492 456.259 794.297 458.317 794.297 460.792C794.297 463.267 793.497 465.336 791.897 467C790.308 468.653 788.302 469.48 785.881 469.48ZM785.881 467.048C787.492 467.048 788.852 466.461 789.961 465.288C791.07 464.115 791.625 462.616 791.625 460.792C791.625 458.947 791.065 457.453 789.945 456.312C788.836 455.16 787.481 454.584 785.881 454.584C784.27 454.584 782.91 455.16 781.801 456.312C780.692 457.464 780.137 458.957 780.137 460.792C780.137 462.616 780.686 464.115 781.785 465.288C782.884 466.461 784.249 467.048 785.881 467.048ZM796.128 469V452.632H798.688V455.56L798.288 455.256H798.768C799.109 454.36 799.733 453.619 800.64 453.032C801.546 452.435 802.485 452.136 803.456 452.136C803.722 452.136 804 452.157 804.288 452.2C804.586 452.243 804.848 452.296 805.072 452.36C805.306 452.424 805.424 452.456 805.424 452.456V455.256C805.424 455.256 805.264 455.213 804.944 455.128C804.634 455.043 804.314 454.979 803.984 454.936C803.653 454.883 803.392 454.856 803.2 454.856C801.994 454.856 800.96 455.336 800.096 456.296C799.232 457.245 798.8 458.408 798.8 459.784V469H796.128ZM811.032 469L819.8 446.088H822.824L831.528 469H828.584L822.136 451.576L821.336 449.112H821.24L820.424 451.576L813.928 469H811.032ZM814.76 462.68L815.672 460.152H826.296L827.208 462.68H814.76ZM839.128 476.312C838.104 476.312 837.155 476.168 836.28 475.88C835.416 475.603 834.632 475.192 833.928 474.648C833.235 474.104 832.702 473.507 832.328 472.856C831.955 472.205 831.768 471.88 831.768 471.88L834.12 470.632C834.12 470.632 834.28 470.888 834.6 471.4C834.92 471.923 835.304 472.371 835.752 472.744C836.2 473.117 836.712 473.4 837.288 473.592C837.864 473.784 838.478 473.88 839.128 473.88C840.846 473.88 842.158 473.384 843.064 472.392C843.971 471.4 844.424 470.003 844.424 468.2V466.408H844.344C843.79 467.272 843.027 467.965 842.056 468.488C841.096 469 839.987 469.256 838.728 469.256C836.552 469.256 834.723 468.467 833.24 466.888C831.768 465.309 831.032 463.235 831.032 460.664C831.032 458.115 831.774 456.056 833.256 454.488C834.739 452.92 836.584 452.136 838.792 452.136C839.976 452.136 841.08 452.397 842.104 452.92C843.128 453.443 843.912 454.136 844.456 455H845.176L844.536 455.832V452.632H847.096V468.216C847.096 470.765 846.387 472.749 844.968 474.168C843.56 475.597 841.614 476.312 839.128 476.312ZM839.128 466.824C840.696 466.824 841.992 466.259 843.016 465.128C844.04 463.997 844.552 462.493 844.552 460.616C844.552 458.771 844.04 457.304 843.016 456.216C841.992 455.117 840.696 454.568 839.128 454.568C837.571 454.568 836.275 455.117 835.24 456.216C834.206 457.304 833.688 458.781 833.688 460.648C833.688 462.611 834.2 464.131 835.224 465.208C836.248 466.285 837.55 466.824 839.128 466.824ZM857.132 469.48C854.764 469.48 852.807 468.664 851.26 467.032C849.713 465.4 848.94 463.32 848.94 460.792C848.94 458.296 849.697 456.232 851.212 454.6C852.727 452.957 854.631 452.136 856.924 452.136C859.281 452.136 861.169 452.851 862.588 454.28C864.017 455.699 864.732 457.469 864.732 459.592V461.336H850.492V459.112H861.932C861.879 457.811 861.399 456.728 860.492 455.864C859.585 455 858.396 454.568 856.924 454.568C855.367 454.568 854.092 455.139 853.1 456.28C852.108 457.411 851.612 458.915 851.612 460.792C851.612 462.691 852.156 464.211 853.244 465.352C854.332 466.483 855.671 467.048 857.26 467.048C858.017 467.048 858.668 466.947 859.212 466.744C859.756 466.531 860.247 466.237 860.684 465.864C861.121 465.48 861.607 464.872 862.14 464.04L864.396 465.144C863.82 466.307 863.18 467.176 862.476 467.752C861.783 468.328 861.009 468.76 860.156 469.048C859.313 469.336 858.305 469.48 857.132 469.48ZM866.571 469V452.632H869.131V455.496L868.715 455.048H869.211C869.691 454.216 870.427 453.523 871.419 452.968C872.411 452.413 873.451 452.136 874.539 452.136C876.459 452.136 877.947 452.701 879.003 453.832C880.059 454.963 880.587 456.525 880.587 458.52V469H877.915V458.92C877.915 457.501 877.574 456.424 876.891 455.688C876.219 454.941 875.201 454.568 873.835 454.568C872.545 454.568 871.457 455.08 870.571 456.104C869.686 457.117 869.243 458.339 869.243 459.768V469H866.571ZM889.088 469.48C887.797 469.48 886.746 469.085 885.936 468.296C885.136 467.496 884.736 466.387 884.736 464.968V448.072H887.392V464.376C887.392 465.293 887.573 465.965 887.936 466.392C888.298 466.819 888.832 467.032 889.536 467.032C889.717 467.032 889.914 467.016 890.128 466.984C890.341 466.941 890.613 466.867 890.944 466.76C891.285 466.653 891.456 466.6 891.456 466.6V469.064C891.456 469.064 891.306 469.107 891.008 469.192C890.72 469.288 890.421 469.357 890.112 469.4C889.813 469.453 889.472 469.48 889.088 469.48ZM881.888 455.032V452.632H891.424V455.032H881.888ZM893.549 469V452.632H896.221V469H893.549ZM894.877 449.4C894.376 449.4 893.944 449.224 893.581 448.872C893.229 448.509 893.053 448.077 893.053 447.576C893.053 447.064 893.229 446.637 893.581 446.296C893.944 445.955 894.376 445.784 894.877 445.784C895.389 445.784 895.816 445.955 896.157 446.296C896.499 446.637 896.669 447.064 896.669 447.576C896.669 448.077 896.499 448.509 896.157 448.872C895.816 449.224 895.389 449.4 894.877 449.4ZM906.608 469.48C904.219 469.48 902.24 468.664 900.672 467.032C899.104 465.389 898.32 463.293 898.32 460.744C898.32 458.205 899.109 456.136 900.688 454.536C902.277 452.936 904.256 452.136 906.624 452.136C907.616 452.136 908.539 452.28 909.392 452.568C910.256 452.856 911.045 453.315 911.76 453.944C912.475 454.573 913.109 455.485 913.664 456.68L911.296 457.688C910.869 456.867 910.432 456.243 909.984 455.816C909.547 455.389 909.029 455.075 908.432 454.872C907.845 454.669 907.205 454.568 906.512 454.568C904.987 454.568 903.68 455.133 902.592 456.264C901.515 457.395 900.976 458.888 900.976 460.744C900.976 462.589 901.515 464.104 902.592 465.288C903.669 466.461 904.976 467.048 906.512 467.048C907.216 467.048 907.867 466.941 908.464 466.728C909.061 466.515 909.573 466.216 910 465.832C910.437 465.437 910.917 464.787 911.44 463.88L913.76 465C913.12 466.205 912.453 467.107 911.76 467.704C911.077 468.291 910.299 468.733 909.424 469.032C908.56 469.331 907.621 469.48 906.608 469.48ZM919.698 469L928.466 446.088H931.49L940.194 469H937.25L930.802 451.576L930.002 449.112H929.906L929.09 451.576L922.594 469H919.698ZM923.426 462.68L924.338 460.152H934.962L935.874 462.68H923.426ZM941.872 469V446.088H944.56V469H941.872Z" fill="white"/>
</g>
<defs>
<linearGradient id="paint0_linear_276_137" x1="1100.55" y1="258.797" x2="-28.541" y2="129.901" gradientUnits="userSpaceOnUse">
<stop stop-color="#1F54FF"/>
<stop offset="1" stop-color="#0049BF"/>
</linearGradient>
<linearGradient id="paint1_linear_276_137" x1="-8" y1="430.5" x2="1048" y2="430.5" gradientUnits="userSpaceOnUse">
<stop stop-color="#1F54FF"/>
<stop offset="1" stop-color="#0049BF"/>
</linearGradient>
<clipPath id="clip0_276_137">
<rect width="1013" height="500" fill="white"/>
</clipPath>
</defs>
</svg>
