<svg width="1013" height="500" viewBox="0 0 1013 500" fill="none" xmlns="http://www.w3.org/2000/svg">
<g clip-path="url(#clip0_276_137)">
<rect width="1013" height="500" fill="#002155"/>
<path d="M1102.85 238.676C1102.85 238.676 1058.61 293.19 899.332 297.953C740.056 302.717 481.863 116.521 373.457 90.4751C265.051 64.4292 202.619 50.4668 118.821 106.811C35.0238 163.156 -39.1734 223.038 -39.1734 223.038" stroke="url(#paint0_linear_276_137)" stroke-width="218.296" stroke-linecap="round"/>
<rect x="36" y="59.7344" width="25.2543" height="8.87531" transform="rotate(-90 36 59.7344)" fill="#FA9819"/>
<rect x="46.6592" y="59.7344" width="25.2543" height="7.61363" transform="rotate(-90 46.6592 59.7344)" fill="#F45F00"/>
<rect x="55.9854" y="59.7344" width="25.2543" height="4.94886" transform="rotate(-90 55.9854 59.7344)" fill="#48749E"/>
<path d="M69.8238 57V36.7613H72.8821V57H69.8238ZM74.7019 57V39.2349H77.0856L77.7302 42.668V57H74.7019ZM85.8407 57V46.8506C85.8407 44.7918 85.5309 43.3326 84.9112 42.4731C84.3016 41.6136 83.3721 41.1838 82.1228 41.1838C80.8735 41.1838 79.8141 41.6435 78.9446 42.563C78.0751 43.4825 77.6403 44.6419 77.6403 46.0411L76.1711 45.1116C76.1711 43.6524 76.8257 42.2782 78.135 40.9889C79.4543 39.6996 81.1483 39.055 83.2172 39.055C85.276 39.055 86.7302 39.7496 87.5798 41.1388C88.4393 42.5181 88.869 44.417 88.869 46.8357V57H85.8407ZM91.7324 57V41.3487H88.1195V39.2349H91.7324V38.1105C91.7324 36.3415 92.4371 35.1072 93.8463 34.4076C95.2655 33.698 97.1594 33.3432 99.5281 33.3432H100.038V35.382H99.5881C98.0689 35.382 96.8846 35.5619 96.0351 35.9217C95.1855 36.2815 94.7608 37.0161 94.7608 38.1255V39.2349H99.8429V41.3487H94.7608V57H91.7324ZM106.983 57.1499C104.225 57.1499 102.241 56.3504 101.031 54.7513C99.8122 53.1421 99.2025 50.9184 99.2025 48.08C99.2025 45.0716 99.8272 42.8179 101.076 41.3187C102.316 39.8096 104.27 39.055 106.938 39.055C109.687 39.055 111.656 39.8096 112.845 41.3187C114.024 42.8279 114.614 45.0666 114.614 48.035C114.614 48.3848 114.594 48.7096 114.554 49.0094H101.811V47.1205H111.556C111.476 44.9417 111.081 43.4026 110.371 42.5031C109.552 41.5436 108.407 41.0639 106.938 41.0639C105.509 41.0639 104.355 41.5686 103.475 42.578C102.586 43.5975 102.141 45.4314 102.141 48.08C102.141 50.5886 102.571 52.3876 103.43 53.477C104.28 54.5863 105.464 55.141 106.983 55.141V57.1499ZM106.983 55.141C107.853 55.141 108.612 54.9961 109.262 54.7063C109.912 54.4164 110.416 53.9217 110.776 53.2221C111.116 52.5225 111.371 51.7329 111.541 50.8534L114.269 51.588C114.099 52.8073 113.709 53.8418 113.1 54.6913C112.48 55.5508 111.681 56.1755 110.701 56.5652C109.722 56.955 108.482 57.1499 106.983 57.1499V55.141ZM125.877 47.5103C125.877 45.0716 125.582 43.4126 124.992 42.5331C124.412 41.6435 123.558 41.1988 122.429 41.1988C121.139 41.1988 120.125 41.6336 119.385 42.5031C118.646 43.3626 118.276 44.337 118.276 45.4264L117.107 44.5719C117.107 43.0528 117.686 41.7585 118.846 40.6891C120.005 39.6197 121.564 39.085 123.523 39.085C125.542 39.085 126.941 39.7596 127.721 41.1088C128.51 42.4481 128.905 44.5819 128.905 47.5103H125.877ZM115.263 57V39.2349H117.646L118.291 42.668V57H115.263ZM136.591 57.1499C133.832 57.1499 131.848 56.3504 130.639 54.7513C129.42 53.1421 128.81 50.9184 128.81 48.08C128.81 45.0716 129.435 42.8179 130.684 41.3187C131.923 39.8096 133.877 39.055 136.546 39.055C139.294 39.055 141.263 39.8096 142.452 41.3187C143.632 42.8279 144.221 45.0666 144.221 48.035C144.221 48.3848 144.201 48.7096 144.161 49.0094H131.418V47.1205H141.163C141.083 44.9417 140.688 43.4026 139.979 42.5031C139.159 41.5436 138.015 41.0639 136.546 41.0639C135.116 41.0639 133.962 41.5686 133.082 42.578C132.193 43.5975 131.748 45.4314 131.748 48.08C131.748 50.5886 132.178 52.3876 133.037 53.477C133.887 54.5863 135.071 55.141 136.591 55.141V57.1499ZM136.591 55.141C137.46 55.141 138.22 54.9961 138.869 54.7063C139.519 54.4164 140.024 53.9217 140.383 53.2221C140.723 52.5225 140.978 51.7329 141.148 50.8534L143.876 51.588C143.707 52.8073 143.317 53.8418 142.707 54.6913C142.087 55.5508 141.288 56.1755 140.308 56.5652C139.329 56.955 138.09 57.1499 136.591 57.1499V55.141ZM144.87 57V39.2349H147.254L147.898 42.668V57H144.87ZM156.009 57V46.8506C156.009 44.7918 155.699 43.3326 155.079 42.4731C154.47 41.6136 153.54 41.1838 152.291 41.1838C151.041 41.1838 149.982 41.6435 149.113 42.563C148.243 43.4825 147.808 44.6419 147.808 46.0411L146.339 45.1116C146.339 43.6524 146.994 42.2782 148.303 40.9889C149.622 39.6996 151.316 39.055 153.385 39.055C155.444 39.055 156.898 39.7496 157.748 41.1388C158.607 42.5181 159.037 44.417 159.037 46.8357V57H156.009ZM167.223 57.1199C165.085 57.1199 163.356 56.7351 162.036 55.9656C160.717 55.196 159.902 53.8168 159.593 51.8279L162.276 50.9134C162.446 52.4126 162.956 53.487 163.805 54.1366C164.665 54.7862 165.819 55.1111 167.268 55.1111C168.638 55.1111 169.662 54.8712 170.342 54.3915C171.031 53.9017 171.376 53.2621 171.376 52.4725C171.376 51.3431 170.851 50.5886 169.802 50.2088C168.753 49.819 167.433 49.4492 165.844 49.0994C164.035 48.7096 162.561 48.1549 161.422 47.4353C160.292 46.7057 159.728 45.4964 159.728 43.8073C159.728 42.2682 160.352 41.0989 161.602 40.2993C162.851 39.4897 164.565 39.085 166.744 39.085C168.912 39.085 170.621 39.4798 171.871 40.2693C173.13 41.0489 173.905 42.3482 174.195 44.1671L171.511 45.0816C171.341 43.7724 170.846 42.7779 170.027 42.0983C169.217 41.4187 168.113 41.0789 166.714 41.0789C165.364 41.0789 164.36 41.3237 163.7 41.8135C163.051 42.3032 162.726 42.9628 162.726 43.7924C162.726 44.8318 163.221 45.5414 164.21 45.9212C165.21 46.301 166.474 46.6658 168.003 47.0156C169.812 47.3854 171.326 47.9101 172.545 48.5897C173.775 49.2593 174.389 50.4836 174.389 52.2626C174.389 53.9017 173.78 55.121 172.56 55.9206C171.341 56.7202 169.562 57.1199 167.223 57.1199ZM179.143 57L173.956 39.2349H177.12L181.437 54.9162H181.467L185.74 39.2349H188.918L183.776 57H179.143ZM174.676 63.9112V61.8273C176.375 61.8273 177.704 61.5075 178.664 60.8678C179.623 60.2382 180.388 58.9489 180.957 57H183.776C182.966 59.7785 181.822 61.6224 180.343 62.5319C178.864 63.4514 176.975 63.9112 174.676 63.9112ZM196.128 57.1199C193.989 57.1199 192.26 56.7351 190.941 55.9656C189.622 55.196 188.807 53.8168 188.497 51.8279L191.181 50.9134C191.351 52.4126 191.86 53.487 192.71 54.1366C193.569 54.7862 194.724 55.1111 196.173 55.1111C197.542 55.1111 198.567 54.8712 199.246 54.3915C199.936 53.9017 200.281 53.2621 200.281 52.4725C200.281 51.3431 199.756 50.5886 198.707 50.2088C197.657 49.819 196.338 49.4492 194.749 49.0994C192.94 48.7096 191.466 48.1549 190.326 47.4353C189.197 46.7057 188.632 45.4964 188.632 43.8073C188.632 42.2682 189.257 41.0989 190.506 40.2993C191.755 39.4897 193.469 39.085 195.648 39.085C197.817 39.085 199.526 39.4798 200.775 40.2693C202.035 41.0489 202.809 42.3482 203.099 44.1671L200.416 45.0816C200.246 43.7724 199.751 42.7779 198.931 42.0983C198.122 41.4187 197.018 41.0789 195.618 41.0789C194.269 41.0789 193.265 41.3237 192.605 41.8135C191.955 42.3032 191.631 42.9628 191.631 43.7924C191.631 44.8318 192.125 45.5414 193.115 45.9212C194.114 46.301 195.378 46.6658 196.908 47.0156C198.717 47.3854 200.231 47.9101 201.45 48.5897C202.679 49.2593 203.294 50.4836 203.294 52.2626C203.294 53.9017 202.684 55.121 201.465 55.9206C200.246 56.7202 198.467 57.1199 196.128 57.1199Z" fill="white"/>
<path d="M97.9744 227.325C94.2184 227.815 89.8908 230.183 84.9916 234.429C80.0925 238.512 75.3566 243.574 70.7841 249.616C66.3748 255.495 62.6188 261.946 59.516 268.968C56.4132 275.827 54.8618 282.196 54.8618 288.075C54.8618 292.811 56.0866 296.158 58.5362 298.118C60.9857 299.914 64.4968 300.813 69.0694 300.813C73.9685 300.813 78.7044 300.241 83.2769 299.098C88.0128 297.791 92.667 296.485 97.2395 295.179C101.975 293.709 106.63 292.402 111.202 291.259C115.938 289.953 120.756 289.3 125.655 289.3C125.655 291.586 125.328 293.546 124.675 295.179C124.022 296.648 123.042 298.281 121.735 300.078C113.243 304.16 104.507 307.916 95.5248 311.346C86.543 314.612 77.153 316.245 67.3546 316.245C64.4151 316.245 61.3123 315.755 58.0462 314.775C54.7801 313.632 51.759 312.081 48.9828 310.121C46.2066 308.161 43.8387 305.793 41.879 303.017C40.0826 300.241 39.1845 297.138 39.1845 293.709C39.1845 286.36 40.2459 279.256 42.3689 272.397C44.4919 265.375 47.4314 258.761 51.1874 252.556C54.9434 246.35 59.4343 240.635 64.6601 235.409C70.0492 230.183 75.8465 225.61 82.0521 221.691V221.446C84.5017 219.976 87.2779 218.588 90.3807 217.282C93.6468 215.812 96.668 214.996 99.4442 214.832C102.22 214.506 104.507 215.159 106.303 216.792C108.263 218.262 109.242 221.12 109.242 225.365C109.242 227.325 109.079 229.938 108.753 233.204C108.426 236.307 107.528 238.512 106.058 239.818C104.752 240.635 103.037 241.369 100.914 242.023C99.9341 242.349 98.9543 242.594 97.9744 242.758V227.325ZM115.621 295.424C115.621 294.77 115.621 293.464 115.621 291.504C115.785 289.381 115.866 287.993 115.866 287.34C121.092 275.419 127.787 264.395 135.953 254.271C144.118 244.146 153.345 235.164 163.633 227.325C163.96 227.325 164.45 227.243 165.103 227.08C165.919 226.754 166.491 226.59 166.817 226.59C171.227 226.59 174.819 227.57 177.596 229.53C180.535 231.326 182.821 233.776 184.454 236.879C186.251 239.818 187.476 243.166 188.129 246.922C188.782 250.515 189.109 254.026 189.109 257.455C189.109 263.824 187.639 270.519 184.699 277.542C181.76 284.4 177.759 290.769 172.696 296.648C167.797 302.364 162.163 307.1 155.794 310.856C149.425 314.449 142.812 316.245 135.953 316.245C129.094 316.245 123.95 314.449 120.52 310.856C117.254 307.1 115.621 301.956 115.621 295.424ZM134.728 292.484C134.728 294.28 135.463 295.505 136.933 296.158C138.402 296.812 139.872 297.138 141.342 297.138C145.424 297.138 149.344 296.077 153.1 293.954C157.019 291.667 160.449 288.891 163.388 285.625C166.491 282.196 168.94 278.44 170.737 274.357C172.533 270.274 173.431 266.355 173.431 262.599C173.431 260.803 173.268 258.843 172.941 256.72C172.778 254.434 172.288 252.474 171.472 250.841C170.655 249.045 169.349 247.657 167.552 246.677C165.919 245.697 163.551 245.534 160.449 246.187C158.162 246.677 155.549 248.8 152.61 252.556C149.67 256.312 146.813 260.721 144.036 265.784C141.423 270.683 139.219 275.664 137.422 280.726C135.626 285.625 134.728 289.545 134.728 292.484ZM191.323 304.977C191.323 303.507 191.323 302.364 191.323 301.547C191.323 300.731 191.405 299.996 191.568 299.343C191.895 298.526 192.303 297.71 192.793 296.893C193.283 296.077 193.936 295.015 194.752 293.709C196.059 291.423 198.509 287.422 202.101 281.706C205.694 275.99 209.532 269.948 213.614 263.579C217.697 257.21 221.535 251.168 225.127 245.452C228.883 239.736 231.496 235.735 232.966 233.449C233.129 233.286 233.538 233.204 234.191 233.204C235.007 233.204 235.579 233.204 235.905 233.204C236.232 233.204 236.804 233.204 237.62 233.204C238.437 233.204 238.927 233.286 239.09 233.449C239.253 233.612 239.58 234.021 240.07 234.674C240.723 235.327 241.376 236.062 242.029 236.879C242.846 237.532 243.499 238.185 243.989 238.838C244.642 239.491 245.132 239.818 245.459 239.818C246.929 239.818 248.48 239.328 250.113 238.348C251.746 237.368 253.379 236.307 255.012 235.164C256.809 233.857 258.605 232.714 260.401 231.734C262.198 230.755 264.076 230.265 266.035 230.265C268.158 230.265 270.118 230.755 271.914 231.734C273.711 232.714 275.262 233.939 276.569 235.409C277.875 236.879 278.855 238.512 279.508 240.308C280.325 242.104 280.733 243.901 280.733 245.697C280.733 249.453 280.161 253.046 279.018 256.475C278.038 259.905 276.895 263.334 275.589 266.763C274.282 270.03 273.057 273.377 271.914 276.807C270.934 280.073 270.445 283.502 270.445 287.095C270.445 290.688 270.853 293.301 271.669 294.934C272.486 296.403 274.772 297.138 278.528 297.138C282.937 297.138 287.102 296.485 291.021 295.179C295.104 293.872 299.268 293.219 303.514 293.219C303.514 297.138 302.289 300.404 299.84 303.017C297.553 305.63 294.614 307.753 291.021 309.386C287.592 310.856 283.836 311.917 279.753 312.571C275.834 313.061 272.241 313.305 268.975 313.305C262.769 313.305 258.197 311.591 255.257 308.161C252.481 304.569 251.093 299.833 251.093 293.954C251.093 290.034 251.746 286.36 253.053 282.931C254.522 279.501 256.074 276.153 257.707 272.887C259.503 269.621 261.136 266.355 262.606 263.089C264.076 259.823 264.811 256.312 264.811 252.556C264.811 251.576 264.647 250.27 264.321 248.637C263.994 247.003 262.933 246.187 261.136 246.187C255.747 246.187 250.848 247.902 246.439 251.331C242.193 254.76 238.273 259.088 234.681 264.314C231.251 269.54 228.067 275.174 225.127 281.216C222.351 287.258 219.657 292.892 217.044 298.118C214.594 303.344 212.226 307.671 209.94 311.101C207.654 314.53 205.286 316.245 202.836 316.245C199.407 316.245 196.631 315.183 194.508 313.061C192.385 310.938 191.323 308.243 191.323 304.977ZM285.642 292.239C285.642 287.503 286.54 282.767 288.336 278.031C290.133 273.296 292.256 268.641 294.705 264.069C297.155 259.333 299.604 254.679 302.054 250.106C304.667 245.534 306.627 241.043 307.933 236.634C304.83 238.43 302.136 239.491 299.849 239.818C297.726 239.981 295.113 240.063 292.011 240.063C291.684 240.063 290.623 240.063 288.826 240.063C287.193 239.9 286.132 239.818 285.642 239.818C286.622 236.225 288.418 233.041 291.031 230.265C293.644 227.325 296.583 224.876 299.849 222.916C303.279 220.793 306.79 219.078 310.383 217.772C314.139 216.302 317.486 215.159 320.426 214.342C325.325 206.667 329.326 198.992 332.429 191.316C335.532 183.478 338.634 175.884 341.737 168.535C345.003 161.023 348.759 153.919 353.005 147.224C357.415 140.365 363.294 134.078 370.642 128.362L371.867 137.67L341.247 209.443C343.044 208.953 345.248 208.463 347.861 207.973C350.474 207.484 353.087 206.994 355.7 206.504C358.476 206.014 361.089 205.606 363.538 205.279C366.151 204.789 368.356 204.299 370.152 203.809C370.316 203.809 370.806 203.809 371.622 203.809C372.439 203.646 373.092 203.564 373.582 203.564C375.868 203.564 377.746 203.972 379.216 204.789C380.686 205.606 381.91 207.402 382.89 210.178C371.785 213.444 361.742 216.874 352.76 220.466C343.779 224.059 335.94 228.795 329.244 234.674C322.712 240.39 317.323 247.738 313.077 256.72C308.994 265.539 306.137 276.888 304.504 290.769C304.504 293.709 304.667 296.403 304.993 298.853C305.32 301.303 307.361 302.772 311.117 303.262C314.873 303.262 318.385 302.527 321.651 301.058C324.917 299.588 328.101 298.036 331.204 296.403C334.307 294.607 337.41 292.974 340.512 291.504C343.779 290.034 347.29 289.3 351.046 289.3C351.046 293.219 349.331 296.812 345.901 300.078C342.472 303.344 338.308 306.202 333.409 308.651C328.673 311.101 323.774 312.979 318.711 314.285C313.649 315.592 309.484 316.245 306.218 316.245C302.952 316.245 300.013 315.592 297.4 314.285C294.787 312.979 292.582 311.264 290.786 309.141C289.153 306.855 287.846 304.242 286.867 301.303C286.05 298.363 285.642 295.342 285.642 292.239ZM342.727 303.262C339.951 297.057 338.726 291.014 339.052 285.135C339.379 279.093 340.686 273.459 342.972 268.233C345.421 262.844 348.524 258.027 352.28 253.781C356.2 249.371 360.364 245.615 364.773 242.513C369.182 239.246 373.592 236.797 378.001 235.164C382.573 233.531 386.574 232.878 390.004 233.204C393.433 233.367 396.128 234.592 398.087 236.879C400.047 239.165 400.7 242.676 400.047 247.412C400.047 253.781 398.006 259.333 393.923 264.069C390.004 268.805 385.595 273.051 380.695 276.807C375.959 280.563 371.55 283.992 367.468 287.095C363.548 290.034 361.589 292.811 361.589 295.424C361.589 296.893 362.405 298.036 364.038 298.853C365.835 299.669 367.876 300.323 370.162 300.813C372.448 301.139 374.735 301.384 377.021 301.547C379.307 301.711 380.94 301.874 381.92 302.037C397.271 298.771 408.784 296.812 416.459 296.158C424.135 295.342 428.952 295.424 430.912 296.403C432.871 297.22 432.463 298.608 429.687 300.568C427.074 302.364 422.991 304.324 417.439 306.447C411.887 308.406 405.436 310.203 398.087 311.836C390.739 313.469 383.472 314.449 376.286 314.775C369.101 314.939 362.405 314.204 356.2 312.571C350.157 310.938 345.666 307.835 342.727 303.262ZM385.595 247.412C382.328 247.412 379.226 248.31 376.286 250.106C373.347 251.903 370.652 254.189 368.202 256.965C365.916 259.578 363.957 262.517 362.323 265.784C360.69 268.886 359.466 271.826 358.649 274.602C358.976 274.765 359.221 274.847 359.384 274.847H360.119C362.405 274.847 365.018 273.867 367.958 271.908C370.897 269.948 373.673 267.58 376.286 264.804C378.899 261.864 381.104 258.843 382.9 255.74C384.696 252.637 385.595 249.861 385.595 247.412ZM455.662 265.049C457.459 263.252 458.439 261.293 458.602 259.17C458.765 257.047 458.847 254.842 458.847 252.556C458.847 242.431 456.805 235.49 452.723 231.734C448.803 227.815 441.945 225.855 432.146 225.855C432.146 224.386 432.881 223.243 434.351 222.426C435.984 221.609 437.78 221.12 439.74 220.956C441.863 220.63 443.823 220.466 445.619 220.466C447.415 220.466 448.559 220.466 449.048 220.466C452.968 220.466 456.479 221.364 459.582 223.161C462.684 224.794 465.297 226.59 467.42 228.55C469.707 230.51 471.503 232.388 472.809 234.184C474.279 235.817 475.341 236.634 475.994 236.634C477.464 236.634 478.852 236.307 480.158 235.654C481.628 235 482.934 234.266 484.077 233.449C485.221 232.469 487.344 230.836 490.446 228.55C493.549 226.1 496.734 223.569 500 220.956C503.429 218.18 506.614 215.649 509.553 213.363C512.656 210.913 514.779 209.198 515.922 208.218C516.412 208.055 517.228 207.81 518.372 207.484C519.678 207.157 520.985 206.83 522.291 206.504C523.597 206.014 524.822 205.606 525.965 205.279C527.272 204.952 528.17 204.789 528.66 204.789H529.395C529.558 204.789 529.721 204.789 529.885 204.789C530.048 204.626 530.211 204.544 530.375 204.544C531.681 204.544 532.824 205.116 533.804 206.259C534.784 207.402 535.274 208.627 535.274 209.933C535.274 211.566 534.457 212.709 532.824 213.363C531.191 213.852 529.231 214.261 526.945 214.587C524.822 214.914 522.699 215.241 520.576 215.567C518.453 215.894 516.902 216.629 515.922 217.772L481.138 258.925V290.769H513.717C513.717 294.199 512.819 296.812 511.023 298.608C509.227 300.404 507.022 301.711 504.409 302.527C501.796 303.181 498.938 303.589 495.835 303.752C492.733 303.752 489.956 303.752 487.507 303.752C479.995 303.752 473.871 301.221 469.135 296.158C464.399 291.096 460.888 284.972 458.602 277.787C456.805 280.726 454.356 284.319 451.253 288.565C448.314 292.647 444.966 296.648 441.21 300.568C437.617 304.324 433.698 307.59 429.452 310.366C425.369 312.979 421.368 314.285 417.449 314.285V303.262L455.662 265.049ZM529.649 292.239C529.649 287.503 530.548 282.767 532.344 278.031C534.14 273.296 536.263 268.641 538.713 264.069C541.163 259.333 543.612 254.679 546.062 250.106C548.675 245.534 550.634 241.043 551.941 236.634C548.838 238.43 546.143 239.491 543.857 239.818C541.734 239.981 539.121 240.063 536.018 240.063C535.692 240.063 534.63 240.063 532.834 240.063C531.201 239.9 530.139 239.818 529.649 239.818C530.629 236.225 532.426 233.041 535.039 230.265C537.651 227.325 540.591 224.876 543.857 222.916C547.286 220.793 550.798 219.078 554.39 217.772C558.146 216.302 561.494 215.159 564.434 214.342C569.333 206.667 573.334 198.992 576.437 191.316C579.539 183.478 582.642 175.884 585.745 168.535C589.011 161.023 592.767 153.919 597.013 147.224C601.422 140.365 607.301 134.078 614.65 128.362L615.875 137.67L585.255 209.443C587.051 208.953 589.256 208.463 591.869 207.973C594.482 207.484 597.095 206.994 599.708 206.504C602.484 206.014 605.097 205.606 607.546 205.279C610.159 204.789 612.364 204.299 614.16 203.809C614.323 203.809 614.813 203.809 615.63 203.809C616.446 203.646 617.1 203.564 617.589 203.564C619.876 203.564 621.754 203.972 623.224 204.789C624.693 205.606 625.918 207.402 626.898 210.178C615.793 213.444 605.75 216.874 596.768 220.466C587.786 224.059 579.948 228.795 573.252 234.674C566.72 240.39 561.331 247.738 557.085 256.72C553.002 265.539 550.144 276.888 548.511 290.769C548.511 293.709 548.675 296.403 549.001 298.853C549.328 301.303 551.369 302.772 555.125 303.262C558.881 303.262 562.392 302.527 565.658 301.058C568.924 299.588 572.109 298.036 575.212 296.403C578.315 294.607 581.417 292.974 584.52 291.504C587.786 290.034 591.297 289.3 595.053 289.3C595.053 293.219 593.339 296.812 589.909 300.078C586.48 303.344 582.316 306.202 577.416 308.651C572.68 311.101 567.781 312.979 562.719 314.285C557.656 315.592 553.492 316.245 550.226 316.245C546.96 316.245 544.02 315.592 541.407 314.285C538.795 312.979 536.59 311.264 534.794 309.141C533.161 306.855 531.854 304.242 530.874 301.303C530.058 298.363 529.649 295.342 529.649 292.239ZM526.965 393.897C536.11 393.897 544.438 391.284 551.951 386.058C559.463 380.832 566.24 374.3 572.282 366.461C578.324 358.786 583.55 350.539 587.959 341.721C592.369 333.065 595.961 325.227 598.738 318.205C599.881 315.265 601.35 311.264 603.147 306.202C604.943 300.976 606.658 295.913 608.291 291.014C610.087 285.952 611.557 281.461 612.7 277.542C614.007 273.622 614.66 271.336 614.66 270.683V269.703C611.884 267.417 609.107 266.6 606.331 267.253C603.555 267.743 600.86 268.56 598.248 269.703C595.798 270.683 593.512 271.336 591.389 271.663C589.266 271.826 587.388 270.356 585.755 267.253C585.755 264.477 586.49 262.273 587.959 260.639C589.429 259.006 591.307 257.7 593.593 256.72C595.88 255.74 598.411 255.005 601.187 254.515C603.963 254.026 606.658 253.454 609.271 252.801C611.884 252.148 614.252 251.249 616.375 250.106C618.497 248.963 620.049 247.33 621.029 245.207L646.259 188.132C648.382 183.559 651.322 179.313 655.078 175.394C658.834 171.311 663.08 167.882 667.816 165.106C672.552 162.33 677.532 160.125 682.758 158.492C687.984 156.859 693.046 156.042 697.946 156.042C704.968 156.042 709.785 157.92 712.398 161.676C715.011 165.432 716.317 171.066 716.317 178.578C716.317 180.048 715.746 181.926 714.603 184.213C713.623 186.499 712.316 188.703 710.683 190.826C709.05 192.949 707.254 194.746 705.294 196.215C703.335 197.685 701.457 198.42 699.66 198.42C699.66 196.297 700.069 194.337 700.885 192.541C701.702 190.581 702.518 188.703 703.335 186.907C704.315 185.111 705.213 183.314 706.029 181.518C706.846 179.558 707.254 177.435 707.254 175.149C707.254 172.536 707.009 170.332 706.519 168.535C706.029 166.739 703.988 165.841 700.395 165.841C695.659 165.841 690.842 167.065 685.943 169.515C681.207 171.801 676.553 174.986 671.98 179.068C667.571 182.988 663.325 187.56 659.242 192.786C655.323 197.849 651.893 203.074 648.954 208.463C646.178 213.852 643.891 219.242 642.095 224.631C640.462 229.856 639.646 234.592 639.646 238.838C639.646 239.165 639.646 239.736 639.646 240.553C639.809 241.206 639.891 241.696 639.891 242.023C642.993 241.043 646.504 239.9 650.424 238.593C654.506 237.287 658.671 236.144 662.917 235.164C667.326 234.021 671.653 233.122 675.899 232.469C680.309 231.653 684.473 231.244 688.392 231.244C688.392 233.857 687.086 236.225 684.473 238.348C681.86 240.471 678.512 242.431 674.43 244.227C670.51 246.024 666.101 247.738 661.202 249.371C656.466 251.004 651.975 252.637 647.729 254.271C643.483 255.74 639.727 257.373 636.461 259.17C633.358 260.803 631.399 262.517 630.582 264.314C629.766 269.213 627.969 275.99 625.193 284.645C622.58 293.301 619.151 302.691 614.905 312.816C610.659 322.94 605.76 333.229 600.207 343.68C594.818 354.132 588.939 363.604 582.57 372.095C576.038 380.587 569.261 387.528 562.239 392.917C555.053 398.306 547.705 401 540.193 401C539.213 401 537.988 400.919 536.518 400.756C534.885 400.592 533.415 400.266 532.109 399.776C530.639 399.286 529.414 398.551 528.435 397.571C527.455 396.591 526.965 395.366 526.965 393.897ZM690.852 303.752C690.852 301.303 691.586 297.873 693.056 293.464C694.526 288.891 696.404 283.992 698.69 278.766C701.14 273.541 703.834 268.233 706.774 262.844C709.877 257.455 712.979 252.556 716.082 248.147C719.185 243.737 722.125 240.145 724.901 237.368C727.677 234.592 730.127 233.204 732.25 233.204C736.822 233.204 739.108 235.409 739.108 239.818C739.108 241.778 738.7 243.411 737.884 244.717C737.23 246.024 736.414 247.248 735.434 248.392C734.454 249.535 733.393 250.678 732.25 251.821C731.106 252.801 730.127 254.026 729.31 255.495C727.84 257.945 726.044 261.293 723.921 265.539C721.798 269.785 719.675 273.949 717.552 278.031C715.592 281.951 713.878 285.462 712.408 288.565C710.938 291.667 710.203 293.382 710.203 293.709V296.893C716.572 295.75 722.696 293.056 728.575 288.81C734.454 284.4 740.007 279.256 745.232 273.377C750.621 267.498 755.684 261.374 760.42 255.005C765.319 248.473 769.891 242.513 774.137 237.123C778.383 231.571 782.384 226.999 786.14 223.406C789.896 219.813 793.407 218.017 796.674 218.017C796.674 224.059 795.449 229.53 792.999 234.429C790.55 239.328 787.855 244.146 784.916 248.881C782.139 253.617 779.526 258.516 777.077 263.579C774.627 268.478 773.402 274.03 773.402 280.236C773.402 282.849 774.954 285.217 778.057 287.34C781.323 289.3 784.997 291.014 789.08 292.484C793.326 293.79 797.408 294.852 801.328 295.668C805.247 296.485 807.942 296.975 809.411 297.138V303.507C805.655 303.67 801.001 303.752 795.449 303.752C789.896 303.589 784.344 302.936 778.792 301.792C773.239 300.649 768.177 298.771 763.604 296.158C759.195 293.382 756.255 289.381 754.786 284.155C750.54 286.932 746.457 290.198 742.538 293.954C738.618 297.71 734.536 301.221 730.29 304.487C726.207 307.753 721.88 310.529 717.307 312.816C712.734 315.102 707.754 316.245 702.365 316.245C699.098 316.245 696.322 314.857 694.036 312.081C691.913 309.304 690.852 306.528 690.852 303.752ZM796.928 293.709C796.928 292.566 797.01 290.851 797.173 288.565C797.5 286.115 797.826 283.747 798.153 281.461C798.48 279.175 798.806 277.133 799.133 275.337C799.459 273.377 799.786 272.152 800.113 271.663L844.695 182.498C845.348 181.191 846.573 179.395 848.369 177.109C850.329 174.659 852.37 172.21 854.493 169.76C856.78 167.147 858.984 164.779 861.107 162.656C863.394 160.37 865.272 158.574 866.741 157.267C867.884 157.594 868.701 158.165 869.191 158.982C869.681 159.798 870.007 160.778 870.171 161.921C870.334 162.901 870.334 163.881 870.171 164.861C870.171 165.841 870.171 166.657 870.171 167.31C870.171 168.127 870.171 169.27 870.171 170.74C870.171 172.21 870.089 172.944 869.926 172.944C868.293 177.354 865.761 182.579 862.332 188.622C858.903 194.664 855.065 201.115 850.819 207.973C846.573 214.832 842.164 222.018 837.591 229.53C833.182 236.879 829.099 244.227 825.343 251.576C821.751 258.761 818.73 265.702 816.28 272.397C813.994 279.093 812.851 285.217 812.851 290.769C812.851 293.709 813.667 296.077 815.3 297.873C817.096 299.506 818.974 300.976 820.934 302.282C822.894 303.589 824.69 304.895 826.323 306.202C828.12 307.508 829.018 309.304 829.018 311.591C829.018 313.061 828.365 314.204 827.058 315.02C825.752 315.673 824.2 316 822.404 316C815.545 316 809.584 314.122 804.522 310.366C799.459 306.447 796.928 300.894 796.928 293.709Z" fill="white"/>
<path d="M-8 451.348C-8 451.348 27.0974 390.427 173.644 366.957C320.191 343.488 578.188 503.78 681.017 517.762C783.846 531.744 842.957 538.735 914.384 471.322C985.81 403.909 1048 334 1048 334" stroke="url(#paint1_linear_276_137)" stroke-width="100" stroke-linecap="round"/>
<path d="M38.512 469V446.088H42.288L49.776 464.936H49.856L57.344 446.088H61.136V469H58.48V453.992L58.592 450.088H58.512L50.896 469H48.736L41.136 450.12H41.056L41.168 454.024V469H38.512ZM71.9122 469.48C69.5016 469.48 67.4962 468.653 65.8962 467C64.2962 465.336 63.4962 463.267 63.4962 460.792C63.4962 458.285 64.2962 456.216 65.8962 454.584C67.5069 452.952 69.5122 452.136 71.9122 452.136C74.3122 452.136 76.3123 452.963 77.9123 454.616C79.5229 456.259 80.3283 458.317 80.3283 460.792C80.3283 463.267 79.5283 465.336 77.9283 467C76.3389 468.653 74.3336 469.48 71.9122 469.48ZM71.9122 467.048C73.5229 467.048 74.8829 466.461 75.9922 465.288C77.1016 464.115 77.6562 462.616 77.6562 460.792C77.6562 458.947 77.0962 457.453 75.9762 456.312C74.8669 455.16 73.5122 454.584 71.9122 454.584C70.3016 454.584 68.9416 455.16 67.8322 456.312C66.7229 457.464 66.1682 458.957 66.1682 460.792C66.1682 462.616 66.7176 464.115 67.8162 465.288C68.9149 466.461 70.2802 467.048 71.9122 467.048ZM87.8227 469.48C86.7774 469.48 85.8494 469.347 85.0387 469.08C84.2387 468.813 83.5187 468.408 82.8787 467.864C82.2494 467.32 81.7694 466.728 81.4387 466.088C81.1187 465.437 80.9587 465.112 80.9587 465.112L83.3587 464.024C83.3587 464.024 83.4921 464.269 83.7587 464.76C84.0361 465.24 84.3774 465.661 84.7827 466.024C85.1881 466.387 85.6467 466.664 86.1587 466.856C86.6707 467.037 87.2894 467.128 88.0147 467.128C89.0707 467.128 89.9241 466.915 90.5747 466.488C91.2254 466.061 91.5507 465.443 91.5507 464.632C91.5507 463.96 91.2894 463.432 90.7667 463.048C90.2441 462.653 89.1774 462.275 87.5667 461.912C85.4121 461.421 83.8707 460.765 82.9427 459.944C82.0147 459.123 81.5507 458.067 81.5507 456.776C81.5507 455.443 82.1427 454.339 83.3267 453.464C84.5214 452.579 85.9721 452.136 87.6787 452.136C88.5961 452.136 89.4067 452.243 90.1107 452.456C90.8254 452.669 91.4814 453.005 92.0787 453.464C92.6761 453.923 93.1134 454.403 93.3907 454.904C93.6787 455.405 93.8227 455.656 93.8227 455.656L91.5027 456.744C91.5027 456.744 91.3801 456.568 91.1347 456.216C90.9001 455.864 90.6121 455.56 90.2707 455.304C89.9294 455.037 89.5347 454.845 89.0867 454.728C88.6494 454.6 88.1534 454.536 87.5987 454.536C86.6174 454.536 85.8121 454.755 85.1827 455.192C84.5641 455.619 84.2547 456.115 84.2547 456.68C84.2547 457.299 84.4947 457.816 84.9747 458.232C85.4547 458.648 86.5801 459.064 88.3507 459.48C90.5374 459.981 92.0681 460.643 92.9427 461.464C93.8174 462.275 94.2547 463.267 94.2547 464.44C94.2547 465.965 93.6521 467.187 92.4467 468.104C91.2414 469.021 89.7001 469.48 87.8227 469.48ZM101.8 469.48C100.51 469.48 99.4589 469.085 98.6483 468.296C97.8483 467.496 97.4483 466.387 97.4483 464.968V448.072H100.104V464.376C100.104 465.293 100.286 465.965 100.648 466.392C101.011 466.819 101.544 467.032 102.248 467.032C102.43 467.032 102.627 467.016 102.84 466.984C103.054 466.941 103.326 466.867 103.656 466.76C103.998 466.653 104.168 466.6 104.168 466.6V469.064C104.168 469.064 104.019 469.107 103.72 469.192C103.432 469.288 103.134 469.357 102.824 469.4C102.526 469.453 102.184 469.48 101.8 469.48ZM94.6002 455.032V452.632H104.136V455.032H94.6002ZM112.393 469V446.088H125.225V448.632H115.081V466.456H125.417V469H112.393ZM113.849 458.792V456.264H124.665V458.792H113.849ZM129.924 469V450.68C129.924 449.165 130.399 447.944 131.348 447.016C132.308 446.077 133.535 445.608 135.029 445.608C135.445 445.608 135.807 445.635 136.116 445.688C136.437 445.731 136.735 445.789 137.012 445.864C137.29 445.928 137.429 445.96 137.429 445.96V448.44C137.429 448.44 137.285 448.408 136.997 448.344C136.708 448.269 136.415 448.211 136.116 448.168C135.818 448.125 135.492 448.104 135.141 448.104C134.405 448.104 133.797 448.339 133.317 448.808C132.837 449.267 132.596 449.928 132.596 450.792V453.208V453.816V469H129.924ZM140.197 469V450.68C140.197 449.165 140.671 447.944 141.621 447.016C142.581 446.077 143.807 445.608 145.301 445.608C145.717 445.608 146.079 445.635 146.389 445.688C146.708 445.731 147.007 445.789 147.285 445.864C147.562 445.928 147.701 445.96 147.701 445.96V448.44C147.701 448.44 147.557 448.408 147.269 448.344C146.981 448.269 146.687 448.211 146.389 448.168C146.09 448.125 145.765 448.104 145.413 448.104C144.677 448.104 144.069 448.339 143.589 448.808C143.109 449.267 142.868 449.928 142.868 450.792V453.208V453.816V469H140.197ZM151.797 449.4C151.295 449.4 150.863 449.224 150.501 448.872C150.149 448.509 149.973 448.077 149.973 447.576C149.973 447.064 150.149 446.637 150.501 446.296C150.863 445.955 151.295 445.784 151.797 445.784C152.309 445.784 152.735 445.955 153.077 446.296C153.418 446.637 153.589 447.064 153.589 447.576C153.589 448.077 153.418 448.509 153.077 448.872C152.735 449.224 152.309 449.4 151.797 449.4ZM126.916 455.032V452.632H131.253V455.032H126.916ZM130.388 455.032V452.632H151.797V455.032H130.388ZM150.469 469V452.632H153.141V469H150.469ZM163.542 469.48C161.152 469.48 159.174 468.664 157.606 467.032C156.038 465.389 155.254 463.293 155.254 460.744C155.254 458.205 156.043 456.136 157.622 454.536C159.211 452.936 161.19 452.136 163.558 452.136C164.55 452.136 165.472 452.28 166.326 452.568C167.19 452.856 167.979 453.315 168.694 453.944C169.408 454.573 170.043 455.485 170.598 456.68L168.23 457.688C167.803 456.867 167.366 456.243 166.918 455.816C166.48 455.389 165.963 455.075 165.366 454.872C164.779 454.669 164.139 454.568 163.446 454.568C161.92 454.568 160.614 455.133 159.526 456.264C158.448 457.395 157.91 458.888 157.91 460.744C157.91 462.589 158.448 464.104 159.526 465.288C160.603 466.461 161.91 467.048 163.446 467.048C164.15 467.048 164.8 466.941 165.398 466.728C165.995 466.515 166.507 466.216 166.934 465.832C167.371 465.437 167.851 464.787 168.374 463.88L170.694 465C170.054 466.205 169.387 467.107 168.694 467.704C168.011 468.291 167.232 468.733 166.358 469.032C165.494 469.331 164.555 469.48 163.542 469.48ZM172.548 469V452.632H175.22V469H172.548ZM173.876 449.4C173.375 449.4 172.943 449.224 172.58 448.872C172.228 448.509 172.052 448.077 172.052 447.576C172.052 447.064 172.228 446.637 172.58 446.296C172.943 445.955 173.375 445.784 173.876 445.784C174.388 445.784 174.815 445.955 175.156 446.296C175.497 446.637 175.668 447.064 175.668 447.576C175.668 448.077 175.497 448.509 175.156 448.872C174.815 449.224 174.388 449.4 173.876 449.4ZM185.511 469.48C183.143 469.48 181.185 468.664 179.639 467.032C178.092 465.4 177.319 463.32 177.319 460.792C177.319 458.296 178.076 456.232 179.591 454.6C181.105 452.957 183.009 452.136 185.303 452.136C187.66 452.136 189.548 452.851 190.967 454.28C192.396 455.699 193.111 457.469 193.111 459.592V461.336H178.871V459.112H190.311C190.257 457.811 189.777 456.728 188.871 455.864C187.964 455 186.775 454.568 185.303 454.568C183.745 454.568 182.471 455.139 181.479 456.28C180.487 457.411 179.991 458.915 179.991 460.792C179.991 462.691 180.535 464.211 181.623 465.352C182.711 466.483 184.049 467.048 185.639 467.048C186.396 467.048 187.047 466.947 187.591 466.744C188.135 466.531 188.625 466.237 189.063 465.864C189.5 465.48 189.985 464.872 190.519 464.04L192.775 465.144C192.199 466.307 191.559 467.176 190.855 467.752C190.161 468.328 189.388 468.76 188.535 469.048C187.692 469.336 186.684 469.48 185.511 469.48ZM194.95 469V452.632H197.51V455.496L197.094 455.048H197.59C198.07 454.216 198.806 453.523 199.798 452.968C200.79 452.413 201.83 452.136 202.918 452.136C204.838 452.136 206.326 452.701 207.382 453.832C208.438 454.963 208.966 456.525 208.966 458.52V469H206.294V458.92C206.294 457.501 205.953 456.424 205.27 455.688C204.598 454.941 203.579 454.568 202.214 454.568C200.923 454.568 199.835 455.08 198.95 456.104C198.065 457.117 197.622 458.339 197.622 459.768V469H194.95ZM217.466 469.48C216.176 469.48 215.125 469.085 214.314 468.296C213.514 467.496 213.114 466.387 213.114 464.968V448.072H215.77V464.376C215.77 465.293 215.952 465.965 216.314 466.392C216.677 466.819 217.21 467.032 217.914 467.032C218.096 467.032 218.293 467.016 218.506 466.984C218.72 466.941 218.992 466.867 219.322 466.76C219.664 466.653 219.834 466.6 219.834 466.6V469.064C219.834 469.064 219.685 469.107 219.386 469.192C219.098 469.288 218.8 469.357 218.49 469.4C218.192 469.453 217.85 469.48 217.466 469.48ZM210.266 455.032V452.632H219.802V455.032H210.266ZM238.764 469.48C235.393 469.48 232.582 468.344 230.332 466.072C228.081 463.789 226.956 460.931 226.956 457.496C226.956 454.051 228.092 451.208 230.364 448.968C232.636 446.728 235.441 445.608 238.78 445.608C239.932 445.608 241.02 445.757 242.044 446.056C243.078 446.355 244.006 446.771 244.828 447.304C245.66 447.837 246.294 448.355 246.732 448.856C247.18 449.357 247.404 449.608 247.404 449.608L245.484 451.272C245.484 451.272 245.27 451.048 244.844 450.6C244.428 450.141 243.921 449.725 243.324 449.352C242.726 448.979 242.054 448.685 241.308 448.472C240.561 448.259 239.718 448.152 238.78 448.152C236.209 448.152 234.049 449.011 232.3 450.728C230.55 452.445 229.676 454.696 229.676 457.48C229.676 460.253 230.54 462.52 232.268 464.28C233.996 466.04 236.161 466.92 238.764 466.92C239.724 466.92 240.614 466.792 241.436 466.536C242.268 466.269 243.041 465.901 243.756 465.432C244.47 464.963 245.014 464.509 245.388 464.072C245.772 463.635 245.964 463.416 245.964 463.416L247.964 465.192C247.964 465.192 247.708 465.485 247.196 466.072C246.684 466.648 245.985 467.213 245.1 467.768C244.214 468.312 243.244 468.733 242.188 469.032C241.142 469.331 240.001 469.48 238.764 469.48ZM256.741 469.48C254.33 469.48 252.325 468.653 250.725 467C249.125 465.336 248.325 463.267 248.325 460.792C248.325 458.285 249.125 456.216 250.725 454.584C252.336 452.952 254.341 452.136 256.741 452.136C259.141 452.136 261.141 452.963 262.741 454.616C264.352 456.259 265.157 458.317 265.157 460.792C265.157 463.267 264.357 465.336 262.757 467C261.168 468.653 259.162 469.48 256.741 469.48ZM256.741 467.048C258.352 467.048 259.712 466.461 260.821 465.288C261.93 464.115 262.485 462.616 262.485 460.792C262.485 458.947 261.925 457.453 260.805 456.312C259.696 455.16 258.341 454.584 256.741 454.584C255.13 454.584 253.77 455.16 252.661 456.312C251.552 457.464 250.997 458.957 250.997 460.792C250.997 462.616 251.546 464.115 252.645 465.288C253.744 466.461 255.109 467.048 256.741 467.048ZM266.988 469V452.632H269.548V455.496L269.132 455.048H269.628C270.108 454.216 270.844 453.523 271.836 452.968C272.828 452.413 273.868 452.136 274.956 452.136C276.876 452.136 278.364 452.701 279.42 453.832C280.476 454.963 281.004 456.525 281.004 458.52V469H278.332V458.92C278.332 457.501 277.99 456.424 277.308 455.688C276.636 454.941 275.617 454.568 274.252 454.568C272.961 454.568 271.873 455.08 270.988 456.104C270.102 457.117 269.66 458.339 269.66 459.768V469H266.988ZM289.504 469.48C288.213 469.48 287.163 469.085 286.352 468.296C285.552 467.496 285.152 466.387 285.152 464.968V448.072H287.808V464.376C287.808 465.293 287.989 465.965 288.352 466.392C288.715 466.819 289.248 467.032 289.952 467.032C290.133 467.032 290.331 467.016 290.544 466.984C290.757 466.941 291.029 466.867 291.36 466.76C291.701 466.653 291.872 466.6 291.872 466.6V469.064C291.872 469.064 291.723 469.107 291.424 469.192C291.136 469.288 290.837 469.357 290.528 469.4C290.229 469.453 289.888 469.48 289.504 469.48ZM282.304 455.032V452.632H291.84V455.032H282.304ZM300.99 469.48C298.622 469.48 296.664 468.664 295.118 467.032C293.571 465.4 292.798 463.32 292.798 460.792C292.798 458.296 293.555 456.232 295.07 454.6C296.584 452.957 298.488 452.136 300.782 452.136C303.139 452.136 305.027 452.851 306.446 454.28C307.875 455.699 308.59 457.469 308.59 459.592V461.336H294.35V459.112H305.79C305.736 457.811 305.256 456.728 304.35 455.864C303.443 455 302.254 454.568 300.782 454.568C299.224 454.568 297.95 455.139 296.958 456.28C295.966 457.411 295.47 458.915 295.47 460.792C295.47 462.691 296.014 464.211 297.102 465.352C298.19 466.483 299.528 467.048 301.118 467.048C301.875 467.048 302.526 466.947 303.07 466.744C303.614 466.531 304.104 466.237 304.542 465.864C304.979 465.48 305.464 464.872 305.998 464.04L308.254 465.144C307.678 466.307 307.038 467.176 306.334 467.752C305.64 468.328 304.867 468.76 304.014 469.048C303.171 469.336 302.163 469.48 300.99 469.48ZM320.055 469L315.191 461.688H314.775L308.343 452.632H311.415L316.471 459.944H316.743L323.111 469H320.055ZM308.183 469L314.695 459.672H315.239L320.071 452.632H323.111L316.727 461.576H316.263L311.223 469H308.183ZM330.133 469.48C328.842 469.48 327.791 469.085 326.981 468.296C326.181 467.496 325.781 466.387 325.781 464.968V448.072H328.437V464.376C328.437 465.293 328.618 465.965 328.981 466.392C329.343 466.819 329.877 467.032 330.581 467.032C330.762 467.032 330.959 467.016 331.173 466.984C331.386 466.941 331.658 466.867 331.989 466.76C332.33 466.653 332.501 466.6 332.501 466.6V469.064C332.501 469.064 332.351 469.107 332.053 469.192C331.765 469.288 331.466 469.357 331.157 469.4C330.858 469.453 330.517 469.48 330.133 469.48ZM322.933 455.032V452.632H332.469V455.032H322.933ZM340.726 469V446.088H344.502L351.99 464.936H352.07L359.558 446.088H363.35V469H360.694V453.992L360.806 450.088H360.726L353.11 469H350.95L343.35 450.12H343.27L343.382 454.024V469H340.726ZM371.838 469.48C370.014 469.48 368.526 468.968 367.374 467.944C366.233 466.92 365.662 465.597 365.662 463.976C365.662 462.344 366.302 461.032 367.582 460.04C368.873 459.037 370.531 458.536 372.558 458.536C373.443 458.536 374.318 458.637 375.182 458.84C376.057 459.043 376.75 459.299 377.262 459.608V458.6C377.262 457.384 376.835 456.403 375.982 455.656C375.129 454.909 374.046 454.536 372.734 454.536C372.03 454.536 371.438 454.621 370.958 454.792C370.478 454.952 370.067 455.155 369.726 455.4C369.395 455.645 369.07 455.939 368.75 456.28C368.441 456.621 368.286 456.792 368.286 456.792L366.254 455.272C366.254 455.272 366.462 455.048 366.878 454.6C367.294 454.141 367.769 453.731 368.302 453.368C368.835 452.995 369.443 452.696 370.126 452.472C370.809 452.248 371.689 452.136 372.766 452.136C374.942 452.136 376.659 452.717 377.918 453.88C379.187 455.043 379.822 456.616 379.822 458.6V469H377.262V465.096L378.19 466.584H377.182C376.659 467.459 375.913 468.163 374.942 468.696C373.982 469.219 372.947 469.48 371.838 469.48ZM372.078 467.096C373.518 467.096 374.739 466.584 375.742 465.56C376.755 464.525 377.262 463.315 377.262 461.928V461.896C376.729 461.533 376.078 461.251 375.31 461.048C374.553 460.835 373.758 460.728 372.926 460.728C371.529 460.728 370.425 461.005 369.614 461.56C368.803 462.104 368.398 462.92 368.398 464.008C368.398 464.936 368.745 465.683 369.438 466.248C370.131 466.813 371.011 467.096 372.078 467.096ZM382.372 469V452.632H384.932V455.496L384.516 455.048H385.012C385.492 454.216 386.228 453.523 387.22 452.968C388.212 452.413 389.252 452.136 390.34 452.136C392.26 452.136 393.748 452.701 394.804 453.832C395.86 454.963 396.388 456.525 396.388 458.52V469H393.716V458.92C393.716 457.501 393.375 456.424 392.692 455.688C392.02 454.941 391.002 454.568 389.636 454.568C388.346 454.568 387.258 455.08 386.372 456.104C385.487 457.117 385.044 458.339 385.044 459.768V469H382.372ZM404.215 469.48C402.391 469.48 400.903 468.968 399.751 467.944C398.61 466.92 398.039 465.597 398.039 463.976C398.039 462.344 398.679 461.032 399.959 460.04C401.25 459.037 402.909 458.536 404.935 458.536C405.821 458.536 406.695 458.637 407.559 458.84C408.434 459.043 409.127 459.299 409.639 459.608V458.6C409.639 457.384 409.213 456.403 408.359 455.656C407.506 454.909 406.423 454.536 405.111 454.536C404.407 454.536 403.815 454.621 403.335 454.792C402.855 454.952 402.445 455.155 402.103 455.4C401.773 455.645 401.447 455.939 401.127 456.28C400.818 456.621 400.663 456.792 400.663 456.792L398.631 455.272C398.631 455.272 398.839 455.048 399.255 454.6C399.671 454.141 400.146 453.731 400.679 453.368C401.213 452.995 401.821 452.696 402.503 452.472C403.186 452.248 404.066 452.136 405.143 452.136C407.319 452.136 409.037 452.717 410.295 453.88C411.565 455.043 412.199 456.616 412.199 458.6V469H409.639V465.096L410.567 466.584H409.559C409.037 467.459 408.29 468.163 407.319 468.696C406.359 469.219 405.325 469.48 404.215 469.48ZM404.455 467.096C405.895 467.096 407.117 466.584 408.119 465.56C409.133 464.525 409.639 463.315 409.639 461.928V461.896C409.106 461.533 408.455 461.251 407.687 461.048C406.93 460.835 406.135 460.728 405.303 460.728C403.906 460.728 402.802 461.005 401.991 461.56C401.181 462.104 400.775 462.92 400.775 464.008C400.775 464.936 401.122 465.683 401.815 466.248C402.509 466.813 403.389 467.096 404.455 467.096ZM421.966 476.312C420.942 476.312 419.993 476.168 419.118 475.88C418.254 475.603 417.47 475.192 416.766 474.648C416.073 474.104 415.539 473.507 415.166 472.856C414.793 472.205 414.606 471.88 414.606 471.88L416.958 470.632C416.958 470.632 417.118 470.888 417.438 471.4C417.758 471.923 418.142 472.371 418.59 472.744C419.038 473.117 419.55 473.4 420.126 473.592C420.702 473.784 421.315 473.88 421.966 473.88C423.683 473.88 424.995 473.384 425.902 472.392C426.809 471.4 427.262 470.003 427.262 468.2V466.408H427.182C426.627 467.272 425.865 467.965 424.894 468.488C423.934 469 422.825 469.256 421.566 469.256C419.39 469.256 417.561 468.467 416.078 466.888C414.606 465.309 413.87 463.235 413.87 460.664C413.87 458.115 414.611 456.056 416.094 454.488C417.577 452.92 419.422 452.136 421.63 452.136C422.814 452.136 423.918 452.397 424.942 452.92C425.966 453.443 426.75 454.136 427.294 455H428.014L427.374 455.832V452.632H429.934V468.216C429.934 470.765 429.225 472.749 427.806 474.168C426.398 475.597 424.451 476.312 421.966 476.312ZM421.966 466.824C423.534 466.824 424.83 466.259 425.854 465.128C426.878 463.997 427.39 462.493 427.39 460.616C427.39 458.771 426.878 457.304 425.854 456.216C424.83 455.117 423.534 454.568 421.966 454.568C420.409 454.568 419.113 455.117 418.078 456.216C417.043 457.304 416.526 458.781 416.526 460.648C416.526 462.611 417.038 464.131 418.062 465.208C419.086 466.285 420.387 466.824 421.966 466.824ZM439.97 469.48C437.602 469.48 435.644 468.664 434.098 467.032C432.551 465.4 431.778 463.32 431.778 460.792C431.778 458.296 432.535 456.232 434.05 454.6C435.564 452.957 437.468 452.136 439.762 452.136C442.119 452.136 444.007 452.851 445.426 454.28C446.855 455.699 447.57 457.469 447.57 459.592V461.336H433.33V459.112H444.77C444.716 457.811 444.236 456.728 443.33 455.864C442.423 455 441.234 454.568 439.762 454.568C438.204 454.568 436.93 455.139 435.938 456.28C434.946 457.411 434.45 458.915 434.45 460.792C434.45 462.691 434.994 464.211 436.082 465.352C437.17 466.483 438.508 467.048 440.098 467.048C440.855 467.048 441.506 466.947 442.05 466.744C442.594 466.531 443.084 466.237 443.522 465.864C443.959 465.48 444.444 464.872 444.978 464.04L447.234 465.144C446.658 466.307 446.018 467.176 445.314 467.752C444.62 468.328 443.847 468.76 442.994 469.048C442.151 469.336 441.143 469.48 439.97 469.48ZM449.409 469V452.632H451.969V455.352L451.697 455.048H452.049C452.529 454.205 453.243 453.512 454.193 452.968C455.153 452.413 456.155 452.136 457.201 452.136C458.385 452.136 459.425 452.429 460.321 453.016C461.217 453.592 461.862 454.371 462.257 455.352C462.854 454.317 463.638 453.523 464.609 452.968C465.59 452.413 466.678 452.136 467.873 452.136C469.697 452.136 471.094 452.696 472.065 453.816C473.046 454.925 473.537 456.483 473.537 458.488V469H470.897V458.92C470.897 457.459 470.593 456.371 469.985 455.656C469.387 454.941 468.459 454.584 467.201 454.584C465.974 454.584 464.934 455.085 464.081 456.088C463.238 457.08 462.817 458.296 462.817 459.736V469H460.145V458.968C460.145 457.496 459.841 456.397 459.233 455.672C458.625 454.936 457.702 454.568 456.465 454.568C455.238 454.568 454.198 455.08 453.345 456.104C452.502 457.128 452.081 458.36 452.081 459.8V469H449.409ZM483.41 469.48C481.042 469.48 479.084 468.664 477.538 467.032C475.991 465.4 475.218 463.32 475.218 460.792C475.218 458.296 475.975 456.232 477.49 454.6C479.004 452.957 480.908 452.136 483.202 452.136C485.559 452.136 487.447 452.851 488.866 454.28C490.295 455.699 491.01 457.469 491.01 459.592V461.336H476.77V459.112H488.21C488.156 457.811 487.676 456.728 486.77 455.864C485.863 455 484.674 454.568 483.202 454.568C481.644 454.568 480.37 455.139 479.378 456.28C478.386 457.411 477.89 458.915 477.89 460.792C477.89 462.691 478.434 464.211 479.522 465.352C480.61 466.483 481.948 467.048 483.538 467.048C484.295 467.048 484.946 466.947 485.49 466.744C486.034 466.531 486.524 466.237 486.962 465.864C487.399 465.48 487.884 464.872 488.418 464.04L490.674 465.144C490.098 466.307 489.458 467.176 488.754 467.752C488.06 468.328 487.287 468.76 486.434 469.048C485.591 469.336 484.583 469.48 483.41 469.48ZM492.849 469V452.632H495.409V455.496L494.993 455.048H495.489C495.969 454.216 496.705 453.523 497.697 452.968C498.689 452.413 499.729 452.136 500.817 452.136C502.737 452.136 504.225 452.701 505.281 453.832C506.337 454.963 506.865 456.525 506.865 458.52V469H504.193V458.92C504.193 457.501 503.851 456.424 503.169 455.688C502.497 454.941 501.478 454.568 500.113 454.568C498.822 454.568 497.734 455.08 496.849 456.104C495.963 457.117 495.521 458.339 495.521 459.768V469H492.849ZM515.365 469.48C514.075 469.48 513.024 469.085 512.213 468.296C511.413 467.496 511.013 466.387 511.013 464.968V448.072H513.669V464.376C513.669 465.293 513.851 465.965 514.213 466.392C514.576 466.819 515.109 467.032 515.813 467.032C515.995 467.032 516.192 467.016 516.405 466.984C516.619 466.941 516.891 466.867 517.221 466.76C517.563 466.653 517.733 466.6 517.733 466.6V469.064C517.733 469.064 517.584 469.107 517.285 469.192C516.997 469.288 516.699 469.357 516.389 469.4C516.091 469.453 515.749 469.48 515.365 469.48ZM508.165 455.032V452.632H517.701V455.032H508.165ZM525.958 469V446.088H528.646V466.456H538.774V469H525.958ZM545.977 469.48C544.153 469.48 542.665 468.968 541.513 467.944C540.371 466.92 539.801 465.597 539.801 463.976C539.801 462.344 540.441 461.032 541.721 460.04C543.011 459.037 544.67 458.536 546.697 458.536C547.582 458.536 548.457 458.637 549.321 458.84C550.195 459.043 550.889 459.299 551.401 459.608V458.6C551.401 457.384 550.974 456.403 550.121 455.656C549.267 454.909 548.185 454.536 546.873 454.536C546.169 454.536 545.577 454.621 545.097 454.792C544.617 454.952 544.206 455.155 543.865 455.4C543.534 455.645 543.209 455.939 542.889 456.28C542.579 456.621 542.425 456.792 542.425 456.792L540.393 455.272C540.393 455.272 540.601 455.048 541.017 454.6C541.433 454.141 541.907 453.731 542.441 453.368C542.974 452.995 543.582 452.696 544.265 452.472C544.947 452.248 545.827 452.136 546.905 452.136C549.081 452.136 550.798 452.717 552.057 453.88C553.326 455.043 553.961 456.616 553.961 458.6V469H551.401V465.096L552.329 466.584H551.321C550.798 467.459 550.051 468.163 549.081 468.696C548.121 469.219 547.086 469.48 545.977 469.48ZM546.217 467.096C547.657 467.096 548.878 466.584 549.881 465.56C550.894 464.525 551.401 463.315 551.401 461.928V461.896C550.867 461.533 550.217 461.251 549.449 461.048C548.691 460.835 547.897 460.728 547.065 460.728C545.667 460.728 544.563 461.005 543.753 461.56C542.942 462.104 542.537 462.92 542.537 464.008C542.537 464.936 542.883 465.683 543.577 466.248C544.27 466.813 545.15 467.096 546.217 467.096ZM557.293 475.816L561.325 467.032L561.405 469L554.093 452.632H556.973L561.805 463.832L562.189 464.92H562.285L562.701 463.8L567.261 452.632H570.125L560.093 475.816H557.293ZM577.575 469.48C575.207 469.48 573.249 468.664 571.703 467.032C570.156 465.4 569.383 463.32 569.383 460.792C569.383 458.296 570.14 456.232 571.655 454.6C573.169 452.957 575.073 452.136 577.367 452.136C579.724 452.136 581.612 452.851 583.031 454.28C584.46 455.699 585.175 457.469 585.175 459.592V461.336H570.935V459.112H582.375C582.321 457.811 581.841 456.728 580.935 455.864C580.028 455 578.839 454.568 577.367 454.568C575.809 454.568 574.535 455.139 573.543 456.28C572.551 457.411 572.055 458.915 572.055 460.792C572.055 462.691 572.599 464.211 573.687 465.352C574.775 466.483 576.113 467.048 577.703 467.048C578.46 467.048 579.111 466.947 579.655 466.744C580.199 466.531 580.689 466.237 581.127 465.864C581.564 465.48 582.049 464.872 582.583 464.04L584.839 465.144C584.263 466.307 583.623 467.176 582.919 467.752C582.225 468.328 581.452 468.76 580.599 469.048C579.756 469.336 578.748 469.48 577.575 469.48ZM587.014 469V452.632H589.574V455.56L589.174 455.256H589.654C589.995 454.36 590.619 453.619 591.526 453.032C592.432 452.435 593.371 452.136 594.342 452.136C594.608 452.136 594.886 452.157 595.174 452.2C595.472 452.243 595.734 452.296 595.958 452.36C596.192 452.424 596.31 452.456 596.31 452.456V455.256C596.31 455.256 596.15 455.213 595.83 455.128C595.52 455.043 595.2 454.979 594.87 454.936C594.539 454.883 594.278 454.856 594.086 454.856C592.88 454.856 591.846 455.336 590.982 456.296C590.118 457.245 589.686 458.408 589.686 459.784V469H587.014ZM602.238 455.032V452.632H612.062V455.032H602.238ZM605.246 469V450.68C605.246 449.165 605.72 447.944 606.67 447.016C607.63 446.077 608.856 445.608 610.35 445.608C610.766 445.608 611.128 445.635 611.438 445.688C611.758 445.731 612.056 445.789 612.334 445.864C612.611 445.928 612.75 445.96 612.75 445.96V448.44C612.75 448.44 612.606 448.408 612.318 448.344C612.03 448.269 611.736 448.211 611.438 448.168C611.139 448.125 610.814 448.104 610.462 448.104C609.726 448.104 609.118 448.339 608.638 448.808C608.158 449.267 607.918 449.928 607.918 450.792V453.208V453.816V469H605.246ZM620.335 469.48C617.924 469.48 615.919 468.653 614.319 467C612.719 465.336 611.919 463.267 611.919 460.792C611.919 458.285 612.719 456.216 614.319 454.584C615.929 452.952 617.935 452.136 620.335 452.136C622.735 452.136 624.735 452.963 626.335 454.616C627.945 456.259 628.751 458.317 628.751 460.792C628.751 463.267 627.951 465.336 626.351 467C624.761 468.653 622.756 469.48 620.335 469.48ZM620.335 467.048C621.945 467.048 623.305 466.461 624.415 465.288C625.524 464.115 626.079 462.616 626.079 460.792C626.079 458.947 625.519 457.453 624.399 456.312C623.289 455.16 621.935 454.584 620.335 454.584C618.724 454.584 617.364 455.16 616.255 456.312C615.145 457.464 614.591 458.957 614.591 460.792C614.591 462.616 615.14 464.115 616.239 465.288C617.337 466.461 618.703 467.048 620.335 467.048ZM630.581 469V452.632H633.141V455.56L632.741 455.256H633.221C633.563 454.36 634.187 453.619 635.093 453.032C636 452.435 636.939 452.136 637.909 452.136C638.176 452.136 638.453 452.157 638.741 452.2C639.04 452.243 639.301 452.296 639.525 452.36C639.76 452.424 639.877 452.456 639.877 452.456V455.256C639.877 455.256 639.717 455.213 639.397 455.128C639.088 455.043 638.768 454.979 638.437 454.936C638.107 454.883 637.845 454.856 637.653 454.856C636.448 454.856 635.413 455.336 634.549 456.296C633.685 457.245 633.253 458.408 633.253 459.784V469H630.581ZM645.485 469L654.253 446.088H657.277L665.981 469H663.037L656.589 451.576L655.789 449.112H655.693L654.877 451.576L648.381 469H645.485ZM649.213 462.68L650.125 460.152H660.749L661.661 462.68H649.213ZM673.582 476.312C672.558 476.312 671.609 476.168 670.734 475.88C669.87 475.603 669.086 475.192 668.382 474.648C667.689 474.104 667.156 473.507 666.782 472.856C666.409 472.205 666.222 471.88 666.222 471.88L668.574 470.632C668.574 470.632 668.734 470.888 669.054 471.4C669.374 471.923 669.758 472.371 670.206 472.744C670.654 473.117 671.166 473.4 671.742 473.592C672.318 473.784 672.932 473.88 673.582 473.88C675.3 473.88 676.612 473.384 677.518 472.392C678.425 471.4 678.878 470.003 678.878 468.2V466.408H678.798C678.244 467.272 677.481 467.965 676.51 468.488C675.55 469 674.441 469.256 673.182 469.256C671.006 469.256 669.177 468.467 667.694 466.888C666.222 465.309 665.486 463.235 665.486 460.664C665.486 458.115 666.228 456.056 667.71 454.488C669.193 452.92 671.038 452.136 673.246 452.136C674.43 452.136 675.534 452.397 676.558 452.92C677.582 453.443 678.366 454.136 678.91 455H679.63L678.99 455.832V452.632H681.55V468.216C681.55 470.765 680.841 472.749 679.422 474.168C678.014 475.597 676.068 476.312 673.582 476.312ZM673.582 466.824C675.15 466.824 676.446 466.259 677.47 465.128C678.494 463.997 679.006 462.493 679.006 460.616C679.006 458.771 678.494 457.304 677.47 456.216C676.446 455.117 675.15 454.568 673.582 454.568C672.025 454.568 670.729 455.117 669.694 456.216C668.66 457.304 668.142 458.781 668.142 460.648C668.142 462.611 668.654 464.131 669.678 465.208C670.702 466.285 672.004 466.824 673.582 466.824ZM691.586 469.48C689.218 469.48 687.26 468.664 685.714 467.032C684.167 465.4 683.394 463.32 683.394 460.792C683.394 458.296 684.151 456.232 685.666 454.6C687.18 452.957 689.084 452.136 691.378 452.136C693.735 452.136 695.623 452.851 697.042 454.28C698.471 455.699 699.186 457.469 699.186 459.592V461.336H684.946V459.112H696.386C696.332 457.811 695.852 456.728 694.946 455.864C694.039 455 692.85 454.568 691.378 454.568C689.82 454.568 688.546 455.139 687.554 456.28C686.562 457.411 686.066 458.915 686.066 460.792C686.066 462.691 686.61 464.211 687.698 465.352C688.786 466.483 690.124 467.048 691.714 467.048C692.471 467.048 693.122 466.947 693.666 466.744C694.21 466.531 694.7 466.237 695.138 465.864C695.575 465.48 696.06 464.872 696.594 464.04L698.85 465.144C698.274 466.307 697.634 467.176 696.93 467.752C696.236 468.328 695.463 468.76 694.61 469.048C693.767 469.336 692.759 469.48 691.586 469.48ZM701.025 469V452.632H703.585V455.496L703.169 455.048H703.665C704.145 454.216 704.881 453.523 705.873 452.968C706.865 452.413 707.905 452.136 708.993 452.136C710.913 452.136 712.401 452.701 713.457 453.832C714.513 454.963 715.041 456.525 715.041 458.52V469H712.369V458.92C712.369 457.501 712.028 456.424 711.345 455.688C710.673 454.941 709.654 454.568 708.289 454.568C706.998 454.568 705.91 455.08 705.025 456.104C704.14 457.117 703.697 458.339 703.697 459.768V469H701.025ZM723.541 469.48C722.251 469.48 721.2 469.085 720.389 468.296C719.589 467.496 719.189 466.387 719.189 464.968V448.072H721.845V464.376C721.845 465.293 722.027 465.965 722.389 466.392C722.752 466.819 723.285 467.032 723.989 467.032C724.171 467.032 724.368 467.016 724.581 466.984C724.795 466.941 725.067 466.867 725.397 466.76C725.739 466.653 725.909 466.6 725.909 466.6V469.064C725.909 469.064 725.76 469.107 725.461 469.192C725.173 469.288 724.875 469.357 724.565 469.4C724.267 469.453 723.925 469.48 723.541 469.48ZM716.341 455.032V452.632H725.877V455.032H716.341ZM728.003 469V452.632H730.675V469H728.003ZM729.331 449.4C728.83 449.4 728.398 449.224 728.035 448.872C727.683 448.509 727.507 448.077 727.507 447.576C727.507 447.064 727.683 446.637 728.035 446.296C728.398 445.955 728.83 445.784 729.331 445.784C729.843 445.784 730.27 445.955 730.611 446.296C730.952 446.637 731.123 447.064 731.123 447.576C731.123 448.077 730.952 448.509 730.611 448.872C730.27 449.224 729.843 449.4 729.331 449.4ZM741.062 469.48C738.672 469.48 736.694 468.664 735.126 467.032C733.558 465.389 732.774 463.293 732.774 460.744C732.774 458.205 733.563 456.136 735.142 454.536C736.731 452.936 738.71 452.136 741.078 452.136C742.07 452.136 742.992 452.28 743.846 452.568C744.71 452.856 745.499 453.315 746.214 453.944C746.928 454.573 747.563 455.485 748.118 456.68L745.75 457.688C745.323 456.867 744.886 456.243 744.438 455.816C744 455.389 743.483 455.075 742.886 454.872C742.299 454.669 741.659 454.568 740.966 454.568C739.44 454.568 738.134 455.133 737.046 456.264C735.968 457.395 735.43 458.888 735.43 460.744C735.43 462.589 735.968 464.104 737.046 465.288C738.123 466.461 739.43 467.048 740.966 467.048C741.67 467.048 742.32 466.941 742.918 466.728C743.515 466.515 744.027 466.216 744.454 465.832C744.891 465.437 745.371 464.787 745.894 463.88L748.214 465C747.574 466.205 746.907 467.107 746.214 467.704C745.531 468.291 744.752 468.733 743.878 469.032C743.014 469.331 742.075 469.48 741.062 469.48ZM754.152 469L762.92 446.088H765.944L774.648 469H771.704L765.256 451.576L764.456 449.112H764.36L763.544 451.576L757.048 469H754.152ZM757.88 462.68L758.792 460.152H769.416L770.328 462.68H757.88ZM776.326 469V446.088H779.014V469H776.326Z" fill="white"/>
<path d="M910.353 465V451.73H912.533V465H910.353ZM906.373 452.74V450.68H916.493V452.74H906.373ZM916.157 465V454.77H918.237V456.65L917.947 456.39H918.297C918.484 455.837 918.857 455.373 919.417 455C919.977 454.627 920.561 454.44 921.167 454.44C921.347 454.44 921.531 454.457 921.717 454.49C921.911 454.517 922.081 454.553 922.227 454.6C922.381 454.647 922.457 454.67 922.457 454.67V456.83C922.457 456.83 922.354 456.797 922.147 456.73C921.941 456.663 921.724 456.613 921.497 456.58C921.277 456.54 921.087 456.52 920.927 456.52C920.201 456.52 919.584 456.8 919.077 457.36C918.577 457.913 918.327 458.6 918.327 459.42V465H916.157ZM924.017 469.32L926.597 463.71L926.647 465L922.107 454.77H924.397L927.107 461.19L927.377 461.99H927.437L927.727 461.17L930.277 454.77H932.537L926.277 469.32H924.017ZM937.036 465V450.68H939.496L946.186 461.24H946.256L946.176 458.6V450.68H948.326V465H946.216L939.176 453.96H939.116L939.186 456.59V465H937.036ZM955.12 465.33C953.567 465.33 952.284 464.813 951.27 463.78C950.257 462.74 949.75 461.44 949.75 459.88C949.75 458.293 950.257 456.99 951.27 455.97C952.29 454.95 953.574 454.44 955.12 454.44C956.667 454.44 957.95 454.953 958.97 455.98C959.99 457.007 960.5 458.307 960.5 459.88C960.5 461.44 959.994 462.74 958.98 463.78C957.967 464.813 956.68 465.33 955.12 465.33ZM955.12 463.43C956.034 463.43 956.8 463.1 957.42 462.44C958.04 461.773 958.35 460.92 958.35 459.88C958.35 458.82 958.037 457.967 957.41 457.32C956.79 456.667 956.027 456.34 955.12 456.34C954.207 456.34 953.437 456.667 952.81 457.32C952.19 457.973 951.88 458.827 951.88 459.88C951.88 460.92 952.187 461.773 952.8 462.44C953.42 463.1 954.194 463.43 955.12 463.43ZM963.359 465L960.109 454.77H962.309L964.249 461.44L964.499 462.33H964.559L964.819 461.49L966.929 454.77H968.949L971.039 461.44L971.299 462.31H971.369L971.619 461.46L973.579 454.77H975.699L972.399 465H970.319L968.109 458.08L967.909 457.34H967.849L967.629 458.08L965.459 465H963.359ZM988.34 460.58C988.513 460.18 988.693 459.827 988.88 459.52C989.067 459.2 989.253 458.927 989.44 458.7H978.06V457.62H989.44C989.253 457.38 989.067 457.107 988.88 456.8C988.693 456.48 988.513 456.127 988.34 455.74H989.28C990.12 456.713 991.007 457.433 991.94 457.9V458.42C991.007 458.873 990.12 459.593 989.28 460.58H988.34Z" fill="white"/>
</g>
<defs>
<linearGradient id="paint0_linear_276_137" x1="1100.55" y1="258.797" x2="-28.541" y2="129.901" gradientUnits="userSpaceOnUse">
<stop stop-color="#1F54FF"/>
<stop offset="1" stop-color="#0049BF"/>
</linearGradient>
<linearGradient id="paint1_linear_276_137" x1="-8" y1="430.5" x2="1048" y2="430.5" gradientUnits="userSpaceOnUse">
<stop stop-color="#1F54FF"/>
<stop offset="1" stop-color="#0049BF"/>
</linearGradient>
<clipPath id="clip0_276_137">
<rect width="1013" height="500" fill="white"/>
</clipPath>
</defs>
</svg>
